<ttFont>
<head>
    <!-- Most of this table will be recalculated by the compiler -->
    <tableVersion value="1.0"/>
    <fontRevision value="0.02"/>
    <checkSumAdjustment value="0xb203c16b"/>
    <magicNumber value="0x5f0f3cf5"/>
    <flags value="00000000 00000011"/>
    <unitsPerEm value="1000"/>
    <created value="Thu Jan  1 00:00:00 1970"/>
    <modified value="Thu Jan  1 00:00:00 1970"/>
    <xMin value="-259"/>
    <yMin value="-150"/>
    <xMax value="1828"/>
    <yMax value="1201"/>
    <macStyle value="00000000 00000000"/>
    <lowestRecPPEM value="3"/>
    <fontDirectionHint value="2"/>
    <indexToLocFormat value="0"/>
    <glyphDataFormat value="0"/>
  </head>
              <CharString index="0">
                69 56 179 callsubr
                55 -57 70 vhcurveto
              </CharString>
              <CharString index="1">
                400 1 blend
              </CharString>
              <CharString index="2">
                -400 54 callsubr
              </CharString>
              <CharString index="3">
                rmoveto
                199 callsubr
              </CharString>
              <CharString index="4">
                -95 vlineto
                125 -125 125 125 rlineto
                95 -100 -53 vlineto
                -25 -25 -25 25 rlineto
                53 vlineto
              </CharString>
              <CharString index="5">
                -106 callsubr
                -104 callsubr
              </CharString>
              <CharString index="6">
                -92 callsubr
                50 vmoveto
              </CharString>
              <CharString index="7">
                rmoveto
                -48 callsubr
              </CharString>
              <CharString index="8">
                50 150 rmoveto
              </CharString>
              <CharString index="9">
                vmoveto
                189 callsubr
              </CharString>
              <CharString index="10">
                rmoveto
                100 53 hlineto
                25 25 25 -25 rlineto
                -53 100 95 vlineto
                -125 125 -125 -125 rlineto
              </CharString>
              <CharString index="11">
                rmoveto
                -100 120 100 vlineto
              </CharString>
              <CharString index="12">
                rmoveto
                100 10 hlineto
                83 -67 67 -83 vhcurveto
                -10 -100 10 hlineto
                28 22 -22 -28 hvcurveto
              </CharString>
              <CharString index="13">
                rmoveto
                -70 -55 -57 -69 hvcurveto
                -44 100 46 vlineto
                13 11 11 14 14 11 -11 -13 vhcurveto
                -46 100 44 vlineto
                69 -56 57 -69 vhcurveto
              </CharString>
              <CharString index="14">
                -29 callsubr
                700 -100 rmoveto
                -17 callsubr
              </CharString>
              <CharString index="15">
                150 hmoveto
                50 100 -50 hlineto
              </CharString>
              <CharString index="16">
                rmoveto
                100 150 -70 1 blend
                -100 hlineto
                400 -150 1 blend
                vmoveto
                100 250 -181 1 blend
                -100 hlineto
                -506 301 125 callsubr
                -300 1 blend
                rmoveto
                -58 callsubr
              </CharString>
              <CharString index="17">
                -200 1 blend
                rmoveto
                100 250 -200 1 blend
                -100 hlineto
                -800 -106 callsubr
                vmoveto
                -25 callsubr
                250 -100 47 callsubr
                180 -220 1 blend
                vmoveto
                -58 callsubr
              </CharString>
              <CharString index="18">
                rmoveto
                170 24 callsubr
                0 -50 -50 vhcurveto
                -20 hlineto
              </CharString>
              <CharString index="19">
                rmoveto
                111 20 1 blend
                hlineto
                639 1050 -20 -400 2 blend
                rlineto
                -111 -20 1 blend
                hlineto
                -539 20 1 blend
                -100 rmoveto
                580 -30 1 blend
                100 -580 30 1 blend
                hlineto
                20 168 callsubr
              </CharString>
              <CharString index="20">
                -22 -16 2 blend
                rmoveto
                679 679 22 -284 2 blend
                rlineto
                56 -15 1 blend
                vlineto
                -43 43 -707 -707 -26 -9 26 324 4 blend
                rlineto
                100 850 -400 1 blend
                rmoveto
                580 100 -580 hlineto
                550 -342 100 1 blend
                rmoveto
                100 342 -100 1 blend
                -100 hlineto
                -530 168 callsubr
              </CharString>
              <CharString index="21">
                rmoveto
                100 565 -70 callsubr
                hlineto
                100 -20 -41 callsubr
              </CharString>
              <CharString index="22">
                rmoveto
                -122 118 26 -57 -13 -73 -45 -47 rlinecurve
                0 35 36 36 -35 vhcurveto
                14 -14 rlineto
              </CharString>
              <CharString index="23">
                200 100 -200 hlineto
              </CharString>
              <CharString index="24">
                rmoveto
                28 callsubr
                20 -100 -20 191 callsubr
                38 -118 67 callsubr
                -14 -11 -11 -14 -69 -56 -56 -69 vhcurveto
                -20 100 20 214 callsubr
                198 callsubr
                -19 9 rmoveto
                69 56 56 69 hvcurveto
                20 -100 -20 213 callsubr
                -24 7 -23 210 callsubr
                28 callsubr
                14 11 11 14 vhcurveto
                19 -159 67 callsubr
                -20 100 20 163 callsubr
              </CharString>
              <CharString index="25">
                rmoveto
                -58 callsubr
                -50 -220 -41 callsubr
              </CharString>
              <CharString index="26">
                rmoveto
                100 20 hlineto
                50 50 0 0 -65 -62 42 58 -23 vhcurveto
              </CharString>
              <CharString index="27">
                -980 -89 callsubr
              </CharString>
              <CharString index="28">
                1000 -70 callsubr
                -1000 -106 callsubr
                vlineto
                100 980 -400 -20 callsubr
              </CharString>
              <CharString index="29">
                hmoveto
                174 hlineto
                -87 150 rlineto
              </CharString>
              <CharString index="30">
                -100 hlineto
                -700</CharString>
              <CharString index="31">
                rmoveto
                -28 callsubr
              </CharString>
              <CharString index="32">
                20 callsubr
                -100</CharString>
              <CharString index="33">
                350 100 -350 hlineto
              </CharString>
              <CharString index="34">
                hlineto
                700 -100 rmoveto
                -17 callsubr
                25</CharString>
              <CharString index="35">
                650 100 -650 hlineto
              </CharString>
              <CharString index="36">
                rmoveto
                -26 callsubr
              </CharString>
              <CharString index="37">
                -400 1 blend
                -100</CharString>
              <CharString index="38">
                -14 callsubr
                -150 -1000 rmoveto
                100 395 -100 hlineto
                150 -395 rmoveto
                15 callsubr
              </CharString>
              <CharString index="39">
                rmoveto
                0 callsubr
              </CharString>
              <CharString index="40">
                -17 callsubr
                -650 -56 callsubr
                675 300 -94 callsubr
                -550 vmoveto
                -107 callsubr
              </CharString>
              <CharString index="41">
                -17 callsubr
                -650 -56 callsubr
                550 80 -97 callsubr
                -205 vmoveto
                -103 callsubr
              </CharString>
              <CharString index="42">
                100 100 -77 callsubr
                -100 rmoveto
                650 100 -650 52 callsubr
                550 -180 rmoveto
                -103 callsubr
                50 20 -95 callsubr
              </CharString>
              <CharString index="43">
                rmoveto
                58 100 -58 hlineto
              </CharString>
              <CharString index="44">
                -72 callsubr
                -250 61 callsubr
                -100 10 callsubr
                25 330 -94 callsubr
                -675</CharString>
              <CharString index="45">
                41 callsubr
                -700</CharString>
              <CharString index="46">
                -1200 -106 callsubr
                -89 callsubr
              </CharString>
              <CharString index="47">
                44 callsubr
                -650</CharString>
              <CharString index="48">
                33 callsubr
                250 -70 1 blend
                -100 -250 70 1 blend
                vlineto
                100 -750 1190 1 blend
                rmoveto
                350 -190 1 blend
                -100 -350 190 1 blend
                vlineto
                100 494 -640 1 blend
                215 callsubr
                50 1 blend
                100 vlineto
                -150 100 -50 1 blend
                rmoveto
                83 67 67 83 hvcurveto
                250 -140 1 blend
                -100 -250 140 1 blend
                156 callsubr
                -200 -20 callsubr
              </CharString>
              <CharString index="49">
                100 20 hlineto
                49 47 1 3 vhcurveto
                -65 30 -55 52 -30 68 rrcurveto
              </CharString>
              <CharString index="50">
                -72 callsubr
                150 vmoveto
                -100 800 100 vlineto
                173 callsubr
                -25 -400 rmoveto
                -107 callsubr
              </CharString>
              <CharString index="51">
                -250 rmoveto
                -72 callsubr
              </CharString>
              <CharString index="52">
                rmoveto
                -150 -100 150 hlineto
              </CharString>
              <CharString index="53">
                800 100 -800 52 callsubr
                700 -160 -95 callsubr
                -700</CharString>
              <CharString index="54">
                -100 rmoveto
                -72 callsubr
              </CharString>
              <CharString index="55">
                250 100 -250 hlineto
              </CharString>
              <CharString index="56">
                420 -200 1 blend
                -100 -420 200 1 blend
                vlineto
                100 730 -230 1 blend
                rmoveto
                270 -170 1 blend
                -100 -270 170 1 blend
                vlineto
                100 250 -170 -20 callsubr
                100 -380 200 1 blend
                rmoveto
                200 -80 1 blend
                -100 -100 80 1 blend
                -50 vlineto
                25 callsubr
                50 -100 80 1 blend
                100 200 -80 1 blend
                -150 hlineto
                64 callsubr
                hvcurveto
              </CharString>
              <CharString index="57">
                -14 callsubr
                -1000 vmoveto
                15 callsubr
              </CharString>
              <CharString index="58">
                rmoveto
                189 callsubr
              </CharString>
              <CharString index="59">
                170 vlineto
                -58 -23 -62 -42 -65 hhcurveto
                32 callsubr
                -20 vlineto
              </CharString>
              <CharString index="60">
                150 hmoveto
                -24 callsubr
              </CharString>
              <CharString index="61">
                100 250 -70 1 blend
                -100 hlineto
                -1000 1260 1 blend
                vmoveto
                100 350 -190 1 blend
                -100 hlineto
                144 -450 125 callsubr
                -200 1 blend
                rmoveto
                -58 callsubr
              </CharString>
              <CharString index="62">
                -41 callsubr
                150 hmoveto
                -58 callsubr
              </CharString>
              <CharString index="63">
                rmoveto
                -19 callsubr
                -250 -71 callsubr
                -25 150 -94 callsubr
              </CharString>
              <CharString index="64">
                rmoveto
                139 callsubr
              </CharString>
              <CharString index="65">
                -16 callsubr
                -20 -100 rmoveto
              </CharString>
              <CharString index="66">
                rmoveto
                220 vlineto
                -30 -68 -55 -52 -65 -30 rrcurveto
                3 47 -1 -49 hvcurveto
                -20 vlineto
              </CharString>
              <CharString index="67">
                400 17 callsubr
              </CharString>
              <CharString index="68">
                -50 100 -96 callsubr
                -20 -100 rmoveto
              </CharString>
              <CharString index="69">
                rmoveto
                100 200 -100 hlineto
              </CharString>
              <CharString index="70">
                rmoveto
                -100 -100 100 hlineto
              </CharString>
              <CharString index="71">
                300 100 -300 hlineto
              </CharString>
              <CharString index="72">
                -30 callsubr
                -100 hmoveto
              </CharString>
              <CharString index="73">
                100 420 -200 1 blend
                -100 hlineto
                310 -30 1 blend
                vmoveto
                100 270 -170 54 callsubr
                -600 200 47 callsubr
              </CharString>
              <CharString index="74">
                -18 callsubr
                250 -77 callsubr
                -56 callsubr
                550 80 -97 callsubr
              </CharString>
              <CharString index="75">
                -13 callsubr
                -42 -100 rmoveto
                55 callsubr
                -550 -53 callsubr
              </CharString>
              <CharString index="76">
                rmoveto
                14 callsubr
              </CharString>
              <CharString index="77">
                300 hmoveto
                176 callsubr
              </CharString>
              <CharString index="78">
                800 100 -800 hlineto
              </CharString>
              <CharString index="79">
                28 22 22 28 28 -22 22 -28 -28 -22 -22 -28 -28 22 -22 28 hvcurveto
              </CharString>
              <CharString index="80">
                -96 callsubr
                -20 -100 rmoveto
                100 245 -100 hlineto
                106</CharString>
              <CharString index="81">
                100 250 -100 hlineto
              </CharString>
              <CharString index="82">
                100 150 -100 hlineto
              </CharString>
              <CharString index="83">
                150 100 -150 hlineto
              </CharString>
              <CharString index="84">
                -27 callsubr
                214 -1 callsubr
                6 489 -82 callsubr
              </CharString>
              <CharString index="85">
                rmoveto
                2 callsubr
              </CharString>
              <CharString index="86">
                0 vmoveto
                3 callsubr
              </CharString>
              <CharString index="87">
                1 blend
                -41 callsubr
              </CharString>
              <CharString index="88">
                -13 callsubr
                -42 -100 rmoveto
                -29 callsubr
                150 -15 callsubr
              </CharString>
              <CharString index="89">
                -13 callsubr
                108 56 callsubr
              </CharString>
              <CharString index="90">
                -26 callsubr
                -700 hmoveto
                -100 650 100 vlineto
              </CharString>
              <CharString index="91">
                50 hmoveto
                -26 callsubr
                -100 -150 -96 callsubr
              </CharString>
              <CharString index="92">
                50 26 callsubr
                550</CharString>
              <CharString index="93">
                200 705 rmoveto
                100 295 -100 hlineto
              </CharString>
              <CharString index="94">
                -100 50 100 vlineto
              </CharString>
              <CharString index="95">
                58 100 -58 hlineto
                -357 221 rmoveto
                175 callsubr
                80 384 rmoveto
                100 286 -100 hlineto
                164 -895 rmoveto
                -188 325 -51 -109 7 -12 41 -72 30 -51 49 -85 16 -28 rlineto
                20 -34 2 -13 -13 vvcurveto
                -47 -38 -38 -47 -47 -38 38 47 15 0 14 17 29 vhcurveto
                60 105 -29 51 -70 -122 rlineto
                -16 -27 -12 -31 -34 vvcurveto
                -90 72 -73 90 90 70 73 90 34 -10 32 -18 26 vhcurveto
                -128 242 rmoveto
                30 -51 122 214 82 153 -96 122 -174 -34 rlinecurve
                -51 vlineto
                142 32 64 -83 -62 -115 rrcurveto
                -169 1 rmoveto
                79 -137 57 99 -60 103 27 callsubr
                120 -209 rmoveto
                187 -326 58 100 -188 326 rlineto
              </CharString>
              <CharString index="96">
                70 callsubr
                675 300 -94 callsubr
              </CharString>
              <CharString index="97">
                70 callsubr
                550 80 -97 callsubr
              </CharString>
              <CharString index="98">
                71 callsubr
                100 -77 callsubr
                -53 callsubr
              </CharString>
              <CharString index="99">
                38 callsubr
                -42 -100 rmoveto
                55 callsubr
                -550 -53 callsubr
              </CharString>
              <CharString index="100">
                626 -78 callsubr
                -563 -150 rmoveto
                112 callsubr
              </CharString>
              <CharString index="101">
                76 callsubr
                150 -15 callsubr
              </CharString>
              <CharString index="102">
                -15 -12 100 callsubr
              </CharString>
              <CharString index="103">
                -84 callsubr
                -58 -150 -22 callsubr
              </CharString>
              <CharString index="104">
                -84 callsubr
                -58 -150 rmoveto
                -33 callsubr
              </CharString>
              <CharString index="105">
                1 callsubr
                250 -77 callsubr
                -56 callsubr
                550 80 -97 callsubr
              </CharString>
              <CharString index="106">
                rmoveto
                28 callsubr
                95 -100 -95 191 callsubr
                44 111 rmoveto
                -95 213 callsubr
                vhcurveto
                -95 100 95 214 callsubr
                vhcurveto
                95 vlineto
                -106 -229 67 callsubr
                -95 100 95 163 callsubr
              </CharString>
              <CharString index="107">
                100 200 -100 hlineto
                -150 -250 rmoveto
                -52 callsubr
                150 140 rmoveto
                166 callsubr
              </CharString>
              <CharString index="108">
                46 callsubr
                108 56 callsubr
              </CharString>
              <CharString index="109">
                -18 callsubr
                250 -77 callsubr
                -56 callsubr
                675 300 -94 callsubr
              </CharString>
              <CharString index="110">
                201 callsubr
                50 -68 callsubr
              </CharString>
              <CharString index="111">
                -18 callsubr
                100 -77 callsubr
                -53 callsubr
              </CharString>
              <CharString index="112">
                58 100 -231 159 callsubr
              </CharString>
              <CharString index="113">
                -84 callsubr
                -58 -150 rmoveto
                4 callsubr
              </CharString>
              <CharString index="114">
                116 hlineto
                -295 508 196 callsubr
                307 -535 58 100 -289 500 rlineto
                -145 hlineto
                -73 -126 rlineto
              </CharString>
              <CharString index="115">
                rmoveto
                -48 callsubr
                -50 hmoveto
                -48 callsubr
              </CharString>
              <CharString index="116">
                150 hmoveto
                650 250 -100 -150 -550 hlineto
                20 -100 -104 callsubr
                800 230 -100 callsubr
              </CharString>
              <CharString index="117">
                rmoveto
                -26 callsubr
                -150 -180 rmoveto
                -103 callsubr
              </CharString>
              <CharString index="118">
                140 hlineto
                285 285 -62 78 rlineto
                -421 -413 rmoveto
                -33 callsubr
              </CharString>
              <CharString index="119">
                rlineto
                5 -9 3 -11 -11 vvcurveto
                -35 -28 -28 -35 -35 -28 28 35 11 3 11 5 9 vhcurveto
              </CharString>
              <CharString index="120">
                32 callsubr
                -266 100 350 vlineto
                32 callsubr
                -300 100 400 vlineto
                -136 -54 -181 -43 -133 -3 rrcurveto
                32 callsubr
              </CharString>
              <CharString index="121">
                -28 callsubr
                150 hmoveto
                -28 callsubr
              </CharString>
              <CharString index="122">
                100 395 -100 hlineto
                -150 310 rmoveto
                100 295 -100 hlineto
              </CharString>
              <CharString index="123">
                140 hlineto
                285 285 -62 78 rlineto
                -421 -413 rmoveto
                -32 callsubr
              </CharString>
              <CharString index="124">
                1 blend
                -96 callsubr
                -150 hmoveto
                -100 120 100 vlineto
              </CharString>
              <CharString index="125">
                100 200 -100 hlineto
                -250 -200 rmoveto
                -84 callsubr
              </CharString>
              <CharString index="126">
                -47 callsubr
                300 -100 rmoveto
              </CharString>
              <CharString index="127">
                400 vmoveto
                -200 100 200 vlineto
              </CharString>
              <CharString index="128">
                rmoveto
                -100 -200 hlineto
                50 50 100 50 hvcurveto
              </CharString>
              <CharString index="129">
                460 -100 -460 vlineto
                150 hmoveto
                100 460 -100 hlineto
              </CharString>
              <CharString index="130">
                14 11 11 14 14 11 -11 -14 -14 -11 -11 -14</CharString>
              <CharString index="131">
                65 callsubr
                0</CharString>
              <CharString index="132">
                -83 -67 -67 -83 -83 67 -67 83 hvcurveto
              </CharString>
              <CharString index="133">
                rmoveto
                68 callsubr
              </CharString>
              <CharString index="134">
                -20 -23 -22 -23 -34 -19 rlinecurve
              </CharString>
              <CharString index="135">
                -4 4 -2 6 6 vvcurveto
              </CharString>
              <CharString index="136">
                hmoveto
                400 100 -400 hlineto
              </CharString>
              <CharString index="137">
                rmoveto
                -13 callsubr
              </CharString>
              <CharString index="138">
                750 -750 1 blend
              </CharString>
              <CharString index="139">
                0 50 0 -50 vvcurveto
              </CharString>
              <CharString index="140">
                -750 1 blend
                rmoveto
              </CharString>
              <CharString index="141">
                -69 callsubr
                -100 -900 36 callsubr
              </CharString>
              <CharString index="142">
                50 31 callsubr
                rmoveto
                -46 callsubr
              </CharString>
              <CharString index="143">
                -96 callsubr
                86 509 -1 callsubr
                -274 -391 -96 callsubr
                160 880 -82 callsubr
              </CharString>
              <CharString index="144">
                131 callsubr
                370 24 callsubr
                -16 -50 -65 -79 -53 108 155 callsubr
              </CharString>
              <CharString index="145">
                200 100 -120 hlineto
                420 704 rmoveto
                159 -14 -107 87 -178 hhcurveto
                -201 hlineto
                58 -39 36 -47 6 -64 rrcurveto
                33 35 19 17 47 hhcurveto
                126 64 -49 -105 9 hvcurveto
                16 -189 -133 -183 -128 -175 -57 -78 -78 -104 -20 -67 rrcurveto
                107 hlineto
                92 180 329 302 -28 322 rrcurveto
                -558 -854 30 callsubr
              </CharString>
              <CharString index="146">
                50 hmoveto
                -34 callsubr
              </CharString>
              <CharString index="147">
                -75 callsubr
                -400 rmoveto
                -93 callsubr
                25 150 -94 callsubr
                -675 -20 -81 callsubr
              </CharString>
              <CharString index="148">
                172 callsubr
                100 -77 callsubr
                50 rmoveto
                -72 callsubr
                675 -400 rmoveto
                -107 callsubr
                25 240 -95 callsubr
              </CharString>
              <CharString index="149">
                -96 callsubr
                160 880 -82 callsubr
                330 -80 callsubr
              </CharString>
              <CharString index="150">
                46 callsubr
                -42 -100 rmoveto
                55 callsubr
                -550 -53 callsubr
              </CharString>
              <CharString index="151">
                -72 callsubr
                150 vmoveto
                -100 799 vlineto
                1 100 rlineto
                -100 -250 10 callsubr
              </CharString>
              <CharString index="152">
                41 -150 rmoveto
                60 49 49 59 hvcurveto
                142 -100 -150 vlineto
                -35 -27 -27 -35 -15 -12 4 8 -11 vhcurveto
                -30 20 33 -20 38 hhcurveto
                109 230 -100 callsubr
              </CharString>
              <CharString index="153">
                141 hlineto
                422 422 -103 39 rlineto
                -6 -72 rmoveto
                109 33 -321 321 -71 -70 rlineto
                -229 -723 30 callsubr
              </CharString>
              <CharString index="154">
                1 blend
                vmoveto
                150 hlineto
                28 22 -22 -28 -28 -22 -22 -28 hvcurveto
                -150 -200 80 1 blend
                100 100 -80 1 blend
                50 hlineto
                83 67 67 83 83 -67 67 -83 hvcurveto
                -50 100 -80 1 blend
                -100 hlineto
              </CharString>
              <CharString index="155">
                29 rmoveto
                -57 100 -72 -124 rlineto
                -18 -26 -10 -32 -34 vvcurveto
                195 callsubr
              </CharString>
              <CharString index="156">
                151 -150 rmoveto
                83 66 67 83 96 -41 54 -59 100 hvcurveto
                -61 -14 -48 -36 -41 vhcurveto
                31 -32 19 -33 -35 vvcurveto
                216 callsubr
                68 -67 83 vhcurveto
              </CharString>
              <CharString index="157">
                -6 37 -12 23 -39 15 16 33 -3 43 -19 34 -6 -42 -19 -35 -64 -32 -74 -37 -30 -75 25 -79</CharString>
              <CharString index="158">
                30 -27 21 -33 7 -40 rrcurveto
                17 10 15 8 14 hhcurveto
                22 15 -8 -23 11 hvcurveto
                6 -12 25 -70 7 -18 16 -40 22 -42 24 -37 rrcurveto
              </CharString>
              <CharString index="159">
                hlineto
                50 vmoveto
                -72 callsubr
              </CharString>
              <CharString index="160">
                rmoveto
                22 18 18 22 22 -18 18 -22 -22 -18 -18 -22 -22 18 -18 22 hvcurveto
              </CharString>
              <CharString index="161">
                1 blend
                -100 hlineto
                -20 vmoveto
                -58 callsubr
              </CharString>
              <CharString index="162">
                172 callsubr
                250 -100 hlineto
              </CharString>
              <CharString index="163">
                -15 callsubr
                -250 rmoveto
                100</CharString>
              <CharString index="164">
                100 50 21 callsubr
                -100</CharString>
              <CharString index="165">
                -26 callsubr
                150 -250 -71 callsubr
              </CharString>
              <CharString index="166">
                hhcurveto
                -41 -34 34 41 41 34 34 41 26 24 -14 -21 13</CharString>
              <CharString index="167">
                200 100 -55 callsubr
                -200</CharString>
              <CharString index="168">
                vmoveto
                -72 callsubr
                700</CharString>
              <CharString index="169">
                -15 40 -12 34 -15 32 rrcurveto
                58 -27 -46 30 -60 hhcurveto
                -27 -45 -11 -13 -30 hvcurveto
              </CharString>
              <CharString index="170">
                207 callsubr
                150 hmoveto
                100 210 -100 hlineto
              </CharString>
              <CharString index="171">
                -28 -22 22 28 28 22 22 28</CharString>
              <CharString index="172">
                hlineto
                -58 23 -42 62 65 vvcurveto
              </CharString>
              <CharString index="173">
                hlineto
                37 -50 16 -50 -3 -50</CharString>
              <CharString index="174">
                rmoveto
                4 -4 2 -6 -6 vvcurveto
              </CharString>
              <CharString index="175">
                500 100 -500 hlineto
              </CharString>
              <CharString index="176">
                rmoveto
                100 260 -100 hlineto
              </CharString>
              <CharString index="177">
                71 callsubr
                250 -77 callsubr
                -56 callsubr
              </CharString>
              <CharString index="178">
                38 callsubr
                108 56 callsubr
              </CharString>
              <CharString index="179">
                0 vmoveto
                201 callsubr
                -150 rmoveto
                200 -50 -50 vlineto
                -46 15 -78 35 -26 vhcurveto
                0 vmoveto
                35 26 15 78 46 vvcurveto
                50 -50 vlineto
                -150 -50 rmoveto
                -36 callsubr
                290 212 callsubr
                -10 hlineto
                -290 -50 rmoveto
                300 50 hlineto
                167 callsubr
                69 56 57 68 26 -6 24 -13 22 vhcurveto
                -41 -9 -36 -14 -21 -16 rrcurveto
                11 -12 6 -12 -10 vvcurveto
                -13 -11 -11 -14 -83 -67 -67 -83 vhcurveto
                40 116 rmoveto
                24 23 32 16 35 4 rrcurveto
                28 callsubr
                29 49 41 101 15 vhcurveto
                640 -70 callsubr
                -570 -106 callsubr
                vlineto
                -91 -23 -59 -47 -85 vvcurveto
                -21 5 -21 10 -17 vhcurveto
                -1 143 rmoveto
                19 29 32 23 44 17 -9 2 rcurveline
                570 -70 callsubr
                -640 -106 callsubr
                vlineto
                5 4 0 -1 5 hvcurveto
                86 621 -400 1 blend
                -45 callsubr
              </CharString>
              <CharString index="180">
                rmoveto
                66 16 70 103 129 hhcurveto
                197 17 -170 -101 -58 hvcurveto
                -115 -200 57 -100 145 253 rlineto
                42 73 0 60 29 vvcurveto
                138 -112 112 -138 -138 -112 -125 -138 vhcurveto
                -650 vmoveto
                -24 callsubr
                245 48 callsubr
                -181 312 -80 -59 182 -314 12 callsubr
                154 -44 rmoveto
                210 100 -210 hlineto
                -231 170 callsubr
                223 -88 rmoveto
                135 -235 83 56 -161 278 rlineto
                -69 120 rmoveto
                -80 139 27 callsubr
                99 -173 rlineto
                -20 729 rmoveto
                6 -79 -112 -56 52 -94 149 -10 rcurveline
                4 vlineto
                -34 11 -38 35 -6 41 -7 48 20 61 1 44 2 67 -47 3 -15 -4 rrcurveto
                6 -79 53 callsubr
              </CharString>
              <CharString index="181">
                75 302 rmoveto
                100 698 -70 callsubr
                hlineto
                250 -698 -106 callsubr
                rmoveto
                698 -70 callsubr
                -698 -106 callsubr
                vlineto
                -225 -302 rmoveto
                209 callsubr
                400 hmoveto
                219 callsubr
                -290 hmoveto
                -36 callsubr
                200 -50 rmoveto
                -50 -200 hlineto
                35 26 15 78 46 vvcurveto
                -100 50 rmoveto
                -50 vlineto
                -46 15 -78 35 -26 vhcurveto
                200 vlineto
                100 vmoveto
                69 56 205 callsubr
                -83 -67 -67 -83 vhcurveto
                -50 300 50 vlineto
                167 callsubr
                vhcurveto
                -19 109 rmoveto
                -4 4 -2 5 6 vvcurveto
                46 -100 -44 vlineto
                -22 5 -20 10 -18 vhcurveto
                24 23 32 16 35 4 rrcurveto
                -6 721 -400 1 blend
                -45 callsubr
              </CharString>
              <CharString index="182">
                -24 callsubr
                119 170 callsubr
                231 -367 rmoveto
                210 100 -210 hlineto
                127 183 callsubr
                -47 83 -74 -68 65 -113 rlineto
                -100 -236 rmoveto
                195 callsubr
                -72 123 -56 -99 49 -85 12 callsubr
                55 96 56 99 24 41 -57 98 -158 -273 rlineto
                -18 -26 -10 -32 -34 vvcurveto
                -87 937 143 callsubr
              </CharString>
              <CharString index="183">
                38 callsubr
                -42 -100 rmoveto
                -29 callsubr
              </CharString>
              <CharString index="184">
                115 231 rmoveto
                -5 2 -5 3 -5 2 rrcurveto
                762 -70 callsubr
                -820 -106 callsubr
                vlineto
                13 -6 12 -6 12 -7 19 27 26 23 33 20 rrcurveto
                -15 -192 rmoveto
                58 66 41 84 42 vhcurveto
                820 -70 callsubr
                -762 -106 callsubr
                vlineto
                -114 -53 -36 -86 -99 vvcurveto
                57 -45 41 -50 27 -55 27 55 41 50 57 45 rrcurveto
                55 -11 50 -29 43 vhcurveto
                -37 -21 -26 -19 -16 -18 rrcurveto
                12 -16 7 -17 -18 vvcurveto
                -6 -2 -5 -3 -4 vhcurveto
                -6 -4 -8 -4 -8 hhcurveto
                -8 -8 4 6 -4 hvcurveto
                -3 4 -2 5 6 vvcurveto
                50 941 -400 1 blend
                -82 callsubr
              </CharString>
              <CharString index="185">
                206 callsubr
                313 -100 hlineto
                300 -313 122 callsubr
                250 196 rmoveto
                104 vlineto
                42 -21 20 -40 vhcurveto
                -79 hlineto
                7 -25 0 -50 -7 -25 rrcurveto
                30 10 -10 -29 hvcurveto
                -27 vlineto
                -25 -446 rmoveto
                -107 callsubr
              </CharString>
              <CharString index="186">
                0 vmoveto
                -52 callsubr
                150 50 rmoveto
                100 42 -206 206 -44 -30 rlineto
                -68 vlineto
                42 vmoveto
                100 658 -70 callsubr
                hlineto
                100 -966 -106 callsubr
                rmoveto
                128 vlineto
                -100 30 rlineto
                -158 vlineto
                100 116 rmoveto
                150 150 rlineto
                68 vlineto
                -44 30 -206 -206 rlineto
                250 150 rmoveto
                658 -70 callsubr
                -658 -106 callsubr
                vlineto
                100 -308 rmoveto
                158 vlineto
                -100 -30 rlineto
                -128 vlineto
                -96 212 rmoveto
                71 -71 -7 -7 -71 71 rlineto
                85 85 rmoveto
                71 -71 -7 -7 -71 71 rlineto
                -25 663 -400 1 blend
                -45 callsubr
              </CharString>
              <CharString index="187">
                98 callsubr
                525 -400 rmoveto
                -107 callsubr
                -554 329 -87 callsubr
              </CharString>
              <CharString index="188">
                206 callsubr
                350 -100 hlineto
                300 -350 122 callsubr
                125 -250 rmoveto
                -107 callsubr
                125 480 -100 callsubr
              </CharString>
              <CharString index="189">
                98 callsubr
                400 -180 rmoveto
                -103 callsubr
                -529 109 -87 callsubr
              </CharString>
              <CharString index="190">
                1 callsubr
                250 -77 callsubr
                -56 callsubr
                675 300 -94 callsubr
                -550 vmoveto
                -107 callsubr
                -369 1029 -85 callsubr
              </CharString>
              <CharString index="191">
                171 callsubr
                -119 -367 rmoveto
                560 100 -560 hlineto
                477 183 callsubr
                -34 61 -85 -50 63 -109 rlineto
                86 129 rmoveto
                -190 -328 rlineto
                333 hlineto
                -104 178 -56 -99 42 -73 rlineto
                -96 hlineto
                128 224 rlineto
                -330 670 143 callsubr
              </CharString>
              <CharString index="192">
                4 callsubr
                675 -250 rmoveto
                -107 callsubr
                25 240 -95 callsubr
                -650 50 -88 callsubr
              </CharString>
              <CharString index="193">
                140 hlineto
                285 285 -62 78 rlineto
                -421 -413 rmoveto
                -18 callsubr
                250 -77 callsubr
                -56 callsubr
                675 300 -94 callsubr
                -550 vmoveto
                -107 callsubr
                -300 585 -86 callsubr
              </CharString>
              <CharString index="194">
                140 hlineto
                285 285 -62 78 rlineto
                -421 -413 rmoveto
                2 callsubr
                -125 -330 rmoveto
                -103 callsubr
                -275 365 -86 callsubr
              </CharString>
              <CharString index="195">
                1 callsubr
                100 -77 callsubr
                -53 callsubr
                675 -250 rmoveto
                -107 callsubr
                25 240 -95 callsubr
                -394 779 -85 callsubr
              </CharString>
              <CharString index="196">
                76 callsubr
                700 -100 -71 callsubr
                -550 -100 26 callsubr
                400 -70 -97 callsubr
              </CharString>
              <CharString index="197">
                134 callsubr
                100 -77 callsubr
                -53 callsubr
                675 -250 rmoveto
                -107 callsubr
                25 240 -95 callsubr
                -325 335 -86 callsubr
              </CharString>
              <CharString index="198">
                hmoveto
                -93 callsubr
                25 150 -94 callsubr
                -675 -200 rmoveto
                100 800 -105 callsubr
                -50 -1200 -106 callsubr
                rmoveto
                -79 callsubr
              </CharString>
              <CharString index="199">
                1 callsubr
                100 -77 callsubr
                -53 callsubr
                550 -30 rmoveto
                -103 callsubr
                50 20 -95 callsubr
                -394 779 -85 callsubr
              </CharString>
              <CharString index="200">
                rmoveto
                -107 callsubr
                -828 hmoveto
                70 55 179 callsubr
                56 -57 69 vhcurveto
                -475 150 rmoveto
                3 callsubr
              </CharString>
              <CharString index="201">
                250 -150 rmoveto
                -108 150 6 1 1 blend
                187 -1 44 -5 233 94 302 -23 201 1 -38 2 -91 -54 -197 29 -73 8 blend
                rrcurveto
                105 -12 -82 128 30 18 3 -31 4 blend
                -129 hhcurveto
                -140 66 callsubr
                8 16 28 31 39 3 84 7 50 -82 8 -59 28 -203 -92 -288 6 -244 4 -163 56 -1 -11 32 -9 -35 -30 78 51 197 -1 106 2 23 -2 14 blend
                -167 131 -51 rrcurveto
                -300 30 1 blend
                150 rmoveto
                290 -30 1 blend
                100 -290 30 1 blend
                hlineto
              </CharString>
              <CharString index="202">
                134 callsubr
                100 -77 callsubr
                -53 callsubr
                550 -30 rmoveto
                -103 callsubr
                50 20 -95 callsubr
                -325 335 -86 callsubr
              </CharString>
              <CharString index="203">
                150 -150 rmoveto
                -84 callsubr
                243 265 rmoveto
                50 callsubr
                rrcurveto
                -12 -100 350 65 callsubr
                -28 -10 -28 -22 -32 59 callsubr
                hvcurveto
                -393 -240 148 callsubr
              </CharString>
              <CharString index="204">
                -15 388 100 callsubr
              </CharString>
              <CharString index="205">
                -84 callsubr
                -58 -150 rmoveto
                -32 callsubr
              </CharString>
              <CharString index="206">
                -47 callsubr
                100 -75 117 callsubr
                -161 -242 -104 callsubr
              </CharString>
              <CharString index="207">
                2 blend
                rmoveto
                -2 12 -4 8 -13 5 6 11 -1 14 -7 11 -2 -14 -2 1 -1 2 -1 -2 -2 1 -2 1 -2 1 3 13 blend
                -6 -11 -21 -11 -25 -12 -10 -25 8 -27 1 4 2 4 2 2 4 -1 5 9 blend
                rrcurveto
                -16 -33 129 2 5 -21 3 blend
                hlineto
                -19 8 -14 20 22 2 -2 3 -2 -4 5 blend
                vvcurveto
                -9 -4 -9 -8 -11 1 1 1 2 2 5 blend
                hhcurveto
                -13 -12 12 13 14 12 11 13 9 8 2 3 -3 -1 -3 -3 -1 -2 -1 -2 10 blend
                -4 -7 1 1 blend
                4 hvcurveto
              </CharString>
              <CharString index="208">
                20 callsubr
                600 -400 rmoveto
                -67 callsubr
                -675 530 -81 callsubr
              </CharString>
              <CharString index="209">
                43 callsubr
                525 -400 rmoveto
                -107 callsubr
                -369 1029 -85 callsubr
              </CharString>
              <CharString index="210">
                -47 callsubr
                100 -75 121 callsubr
                -80 -125 -104 callsubr
              </CharString>
              <CharString index="211">
                -105 callsubr
                -350 -1350 -106 callsubr
                126 callsubr
              </CharString>
              <CharString index="212">
                300 hmoveto
                150 -100 -150 174 callsubr
                150 -100 -38 callsubr
                150 -200 -71 callsubr
                100 -20 -100 callsubr
                -50 -50 -100 callsubr
                -50 -50 -100 callsubr
              </CharString>
              <CharString index="213">
                20 callsubr
                600 -400 rmoveto
                -66 callsubr
                -650 310 -81 callsubr
              </CharString>
              <CharString index="214">
                -30 callsubr
                -100 hmoveto
                -93 callsubr
                25 150 -94 callsubr
                -575 -170 -100 callsubr
              </CharString>
              <CharString index="215">
                46 callsubr
                -42 -100 rmoveto
                -29 callsubr
                150 -15 callsubr
              </CharString>
              <CharString index="216">
                20 callsubr
                600 -400 rmoveto
                -65 callsubr
                -700 280 -81 callsubr
              </CharString>
              <CharString index="217">
                188 callsubr
                19 13 25 5 rlinecurve
                3 18 4 4 18 13 18 -13 4 -4 3 -18 25 -5 19 -13 154 callsubr
                48 61 -7 -26 55 hvcurveto
                22 27 26 24 29 20 -40 25 -47 18 -51 10 rrcurveto
              </CharString>
              <CharString index="218">
                411 hmoveto
                115 hlineto
                -243 420 -86 -50 rlineto
                -247 -370 rmoveto
                576 hlineto
                -109 100 rlineto
                -467 hlineto
                132 -75 rmoveto
                87 46 rlineto
                -18 22 -11 28 30 vvcurveto
                68 56 56 68 vhcurveto
                10 90 rlineto
                -124 -100 -100 -124 -42 12 -40 20 -34 hvcurveto
                12 -25 rmoveto
                126 19 130 225 -70 78 rlineto
                13 81 181 callsubr
              </CharString>
              <CharString index="219">
                -74 callsubr
                476 132 callsubr
                -456 -100 -104 callsubr
              </CharString>
              <CharString index="220">
                -52 callsubr
                376 -100 rmoveto
                58 100 -233 159 callsubr
                132 -230 rmoveto
                115 hlineto
                -170 293 -74 -68 rlineto
                303 -225 -64 callsubr
                -356 -100 -104 callsubr
              </CharString>
              <CharString index="221">
                -52 callsubr
                376 132 callsubr
                -356 -100 -104 callsubr
              </CharString>
              <CharString index="222">
                50 25 117 callsubr
              </CharString>
              <CharString index="223">
                50 25 121 callsubr
              </CharString>
              <CharString index="224">
                118 callsubr
                -125 140 callsubr
              </CharString>
              <CharString index="225">
                rmoveto
                10 100 -10 hlineto
                -100 -125 rmoveto
                -74 callsubr
                340 212 callsubr
                25 -10 vlineto
                -115</CharString>
              <CharString index="226">
                -47 callsubr
                -100 vmoveto
                -74 callsubr
                250 -50 -68 callsubr
                -80 -90 -104 callsubr
              </CharString>
              <CharString index="227">
                165 -150 rmoveto
                86 75 56 94 3 hvcurveto
                3 96 -42 70 -60 84 rrcurveto
                -61 -14 -48 -36 -41 vhcurveto
                31 -18 20 -34 -39 vvcurveto
                -59 -47 -47 -59 -59 -47 47 59 vhcurveto
                -1 34 12 44 51 31 18 11 32 10 33 -5 rrcurveto
                16 -4 -16 11 -15 hhcurveto
                6 14 12 65 -70 11 44 -26 -8 -46 -26 -26 -8 -8 -9 -9 -9 -6 rrcurveto
                -45 -31 -16 -44 -40 vvcurveto
                -91 74 -74 91 vhcurveto
              </CharString>
              <CharString index="228">
                118 callsubr
                -25 141 callsubr
              </CharString>
              <CharString index="229">
                rmoveto
                219 callsubr
                -490 hmoveto
                68 callsubr
                250 hmoveto
                10 100 -10 vlineto
                -100 vmoveto
                -10 -100 10 vlineto
                110 180 rmoveto
                24 -18 16 -29 -33 vvcurveto
                -15 -3 -13 -6 -13 vhcurveto
                105 2 rlineto
                3 13 1 13 13 vvcurveto
                89 -59 76 -81 26 vhcurveto
                -260 -291 rmoveto
                100 100 hlineto
                33 16 29 24 18 vhcurveto
                111 vlineto
                -81 -26 -59 -76 -89 vvcurveto
              </CharString>
              <CharString index="230">
                -75 callsubr
                -400 rmoveto
                -57 callsubr
                -675 530 -81 callsubr
              </CharString>
              <CharString index="231">
                -72 callsubr
                150 vmoveto
                -100 800 100 vlineto
                173 callsubr
                -25 -400 rmoveto
                -107 callsubr
                -675 150 rmoveto
                100 1000 -105 callsubr
              </CharString>
              <CharString index="232">
                1 blend
                vmoveto
                -194 50 1 blend
                100 98 -50 1 blend
                vlineto
                -46 15 -37 36 -17 45 rrcurveto
                150 -94 rmoveto
                83 67 67 83 83 -67 67 -83 -14 -13 -2 -3 -13 hvcurveto
                -114 vlineto
                12 9 15 7 16 hhcurveto
                28 22 -22 -28 -28 -22 -22 -28 -28 -22 22 28 hvcurveto
                250 -140 1 blend
                -100 -250 140 1 blend
                vlineto
                -83 67 -67 83 vhcurveto
                -150 580</CharString>
              <CharString index="233">
                186 callsubr
                -50 rmoveto
                -79 callsubr
                -180 -1130 -102 callsubr
              </CharString>
              <CharString index="234">
                120 -150 rmoveto
                120 10 110 50 hvcurveto
                -100 hlineto
                -38 -13 -86 -137 1 vhcurveto
                -31 41 40 -6 39 hhcurveto
                -120 150 rmoveto
                -52 callsubr
                150 -60 rmoveto
                100 210 -100 hlineto
                -10 vmoveto
                166 callsubr
              </CharString>
              <CharString index="235">
                250 hmoveto
                50 -100 -50 182 callsubr
                50 -68 callsubr
              </CharString>
              <CharString index="236">
                220 callsubr
                -350 -800 rmoveto
                160 100 -10 hlineto
                -28 -22 22 28 -65 -42 -62 -58 -23 hvcurveto
                200 150 rmoveto
                100 500 -100 hlineto
                160 50 185 callsubr
                -210 -600 rmoveto
                -100 10 vlineto
                83 67 67 83 hvcurveto
                10 -100 -10 vlineto
                -28 -22 -22 -28 vhcurveto
              </CharString>
              <CharString index="237">
                -52 callsubr
                201 -100 rmoveto
                116 hlineto
                -238 408 196 callsubr
                250 -435 58 100 -232 400 rlineto
                -145 hlineto
                -73 -126 rlineto
                392 -374 -64 callsubr
                -356 -100 -104 callsubr
              </CharString>
              <CharString index="238">
                164 callsubr
                -184 575 rmoveto
                51 callsubr
                -7 -100</CharString>
              <CharString index="239">
                -100 rmoveto
                58 100 -289 500 162 callsubr
                190 -330 rmoveto
                115 hlineto
                -228 393 -74 -68 rlineto
                359 -325 -64 callsubr
              </CharString>
              <CharString index="240">
                -84 callsubr
                -58 -150 rmoveto
                -19 callsubr
              </CharString>
              <CharString index="241">
                140 hlineto
                285 285 -62 78 rlineto
                -421 -413 rmoveto
                -18 callsubr
              </CharString>
              <CharString index="242">
                220 callsubr
                -150 -650 rmoveto
                100 500 -100 hlineto
                -9 -650 rmoveto
                60 49 44 83 hvcurveto
                123 -100 -131 vlineto
                -77 -60 -21 -40 29 vhcurveto
                -30 20 33 -20 38 hhcurveto
                169 700 185 callsubr
              </CharString>
              <CharString index="243">
                15 callsubr
                250 -950 21 callsubr
                -350</CharString>
              <CharString index="244">
                69 callsubr
                -25 -400 rmoveto
                -107 callsubr
                125 380 -100 callsubr
              </CharString>
              <CharString index="245">
                800 100 -800 52 callsubr
                700 -160 -95 callsubr
                -600 130 -100 callsubr
              </CharString>
              <CharString index="246">
                -13 callsubr
                -42 -100 rmoveto
                -29 callsubr
                700 -100 -71 callsubr
                -550 -100 26 callsubr
                400 -70 -97 callsubr
              </CharString>
              <CharString index="247">
                rmoveto
                69 56 56 69 69 -56 56 -69 -69 -56 -56 -69 -69 56 -56 69 hvcurveto
                100 vmoveto
                -14 -11 11 14 23 callsubr
                hvcurveto
                -44 132 rmoveto
                88 10 hlineto
                -13 4 -31 27 27 vvcurveto
                -27 -31 -27 -13 -4 vhcurveto
              </CharString>
              <CharString index="248">
                rmoveto
                -14 -11 11 14 23 callsubr
                hvcurveto
                -125 25 rmoveto
                -69 56 -56 69 69 56 56 69 13 -1 14 -8 25 vhcurveto
                -19 61 -65 45 -32 17 rrcurveto
                -26 -28 -26 -14 -5 vhcurveto
                -48 -17 -35 -47 -54 vvcurveto
              </CharString>
              <CharString index="249">
                150 51 rmoveto
                100 49 rlineto
                66 -73 60 -52 24 vhcurveto
                -5 -61 -10 -48 -35 -41 rrcurveto
                58 17 -27 -22 hvcurveto
                -100 -201 rmoveto
                -84 callsubr
                -50 0 50 0 -38 -35 -86 -15 -26 hvcurveto
                200 50 -38 callsubr
              </CharString>
              <CharString index="250">
                rmoveto
                72 16 50 89 122 hhcurveto
                139 81 -114 -179 -6 hvcurveto
                -3 -103 -20 -108 -41 -102 61 -105 rcurveline
                49 91 54 163 187 vvcurveto
                219 -116 140 -156 -138 -92 -112 -138 vhcurveto
              </CharString>
              <CharString index="251">
                -75 callsubr
                -400 rmoveto
                -54 callsubr
              </CharString>
              <CharString index="252">
                55 39 64 77 vvcurveto
                93 -72 80 -88 vhcurveto
                -190 66 callsubr
                rrcurveto
                16 8 28 34 39 13 5 0 17 hhcurveto
                43 47 -31 -43 hvcurveto
                -64 -41 -51 -80 vvcurveto
                -45 12 -28 17 -18 vhcurveto
                -138 -90 rmoveto
              </CharString>
              <CharString index="253">
                -71 callsubr
                -400 -250 rmoveto
                -36 callsubr
                375 -250 rmoveto
                -107 callsubr
                -25</CharString>
              <CharString index="254">
                -14 callsubr
                -150 -850 rmoveto
                100 245 -100 hlineto
                150 -395 rmoveto
                15 callsubr
                -100 -750 -96 callsubr
                86</CharString>
              <CharString index="255">
                rmoveto
                -69 57 -56 69 vhcurveto
                44 100 -46 208 callsubr
                46 100 -44 hlineto
                -69 -57 -55 -70 hvcurveto
                330 -125 -89 callsubr
              </CharString>
              <CharString index="256">
                150 -150 rmoveto
                83 67 67 83 hvcurveto
                100 -100 -100 197 callsubr
                vhcurveto
                150 230 -100 callsubr
              </CharString>
              <CharString index="257">
                rmoveto
                850 -70 callsubr
                -850 -106 callsubr
                vlineto
                -100 100 -96 callsubr
                80 730 -400 -20 callsubr
              </CharString>
              <CharString index="258">
                hmoveto
                100 1000 -105 callsubr
                -100 -1100 -40 callsubr
              </CharString>
              <CharString index="259">
                250 25 rmoveto
                96 -41 29 -59 100 vhcurveto
                -61 -24 -48 -36 -41 vhcurveto
                34 -7 26 -32 -36 vvcurveto
                -41 -34 -34 -41 -32 -32 21 29 -11 vhcurveto
                -7 -56 -15 -50 -28 -44 rrcurveto
                125 hlineto
                97 78 78 97 hvcurveto
              </CharString>
              <CharString index="260">
                rmoveto
                100 850 -70 callsubr
                hlineto
                -100 -750 -106 callsubr
                -96 callsubr
                -20 730 -400 1 blend
                rmoveto
                -58 callsubr
              </CharString>
              <CharString index="261">
                21 -18 160 -50 rcurveline
                108 -27 -106 80 -117 hhcurveto
                -117 -106 -80 -108 -27 hvcurveto
                169 175 rmoveto
                162 hlineto
                63 -81 2 60 -60 -81 -2 -63 vvcurveto
                -169 -175 rmoveto
              </CharString>
              <CharString index="262">
                178 callsubr
                338 -575 -89 callsubr
              </CharString>
              <CharString index="263">
                vlineto
                204 callsubr
                16 15 -7 -12 9 vhcurveto
                114 vlineto
                3 -13 -13 2 -14 hhcurveto
                25 callsubr
                150 580</CharString>
              <CharString index="264">
                rmoveto
                115 hlineto
                -280 484 -66 113 -71 20 -96 -28 rlinecurve
                30 -27 18 -26 7 -40 17 8 33 3 17 -30 rrcurveto
                -172 -327 rmoveto
                453 100 -453 hlineto
              </CharString>
              <CharString index="265">
                140 hlineto
                285 285 -62 78 rlineto
                -421 -413 30 callsubr
                -42 -100 rmoveto
                -29 callsubr
                150 -15 callsubr
              </CharString>
              <CharString index="266">
                400 162 callsubr
              </CharString>
              <CharString index="267">
                150 -150 186 callsubr
              </CharString>
              <CharString index="268">
                200 -1 rmoveto
                96 -41 55 -59 100 vhcurveto
                -61 -14 -48 -36 -41 vhcurveto
                31 -32 14 -38 5 -30 13 -72 -50 -62 -63 -1 rrcurveto
                81 -43 119 55 122 vvcurveto
              </CharString>
              <CharString index="269">
                27 callsubr
                -55 -205 rmoveto
                5 -9 175 callsubr
              </CharString>
              <CharString index="270">
                vlineto
                198 callsubr
              </CharString>
              <CharString index="271">
                126 -150 rmoveto
                174 100 -176 208 callsubr
                126 100 -124 hlineto
                -69 -57 -55 -70 -69 57 -56 69 hvcurveto
              </CharString>
              <CharString index="272">
                914 100 rmoveto
                -100 364 100 vlineto
                -778 hmoveto
                -100 364 100 vlineto
                150 -50 rmoveto
                -100 -200 hlineto
                85 24 15 66 60 vvcurveto
                -100 hmoveto
                100</CharString>
              <CharString index="273">
                100 60 hlineto
                -30 -23 -36 -20 -41 hhcurveto
                -50 -160 rmoveto
                10 vlineto
                28 22 22 28 vhcurveto
                10 100 -10 hlineto
                -83 -67 -67 -83 hvcurveto
                -10 vlineto
              </CharString>
              <CharString index="274">
                38 -14 36 -24 26 vhcurveto
                -20 -29 -30 -21 -36 -7 rrcurveto
                15 -9 9 -16 -18 vvcurveto
                204 callsubr
              </CharString>
              <CharString index="275">
                hmoveto
                -170 hlineto
                58 -23 42 -62 -65 vvcurveto
                0 0 50 50 vhcurveto
                20 hlineto
              </CharString>
              <CharString index="276">
                218 callsubr
                500 rmoveto
                250 -100 -250 vlineto
                100 -600 rmoveto
                200 -100 -200 vlineto
                100</CharString>
              <CharString index="277">
                267 171 callsubr
              </CharString>
              <CharString index="278">
                rmoveto
                5 -9 187 callsubr
                -72 -42 -23 -91 40 -72 rlinecurve
              </CharString>
              <CharString index="279">
                -72 callsubr
                700 -100 rmoveto
                100</CharString>
              <CharString index="280">
                -100 -250 -71 callsubr
              </CharString>
              <CharString index="281">
                182 callsubr
                29 callsubr
              </CharString>
              <CharString index="282">
                187 callsubr
                -73 -40 -22 -93 40 -72 rlinecurve
              </CharString>
              <CharString index="283">
                250 -100 -250 184 callsubr
              </CharString>
              <CharString index="284">
                -3 -3 -5 1 -8 3 -5 1 7 3 6 11 5 12 6 5 13 -4 13 24 blend
                rrcurveto
              </CharString>
              <CharString index="285">
                47 -18 vhcurveto
                62 callsubr
              </CharString>
              <CharString index="286">
                205 callsubr
                -14 -11 11 13 vhcurveto
                46 -100 -44 vlineto
                -69</CharString>
              <CharString index="287">
                rmoveto
                334 hlineto
                58 100 rlineto
                -450 hlineto
                170 -10 rmoveto
                110 hlineto
                -55 110 rlineto
              </CharString>
              <CharString index="288">
                rmoveto
                -85 147 9 -62 -33 -67 -56 -33 rlinecurve
                0 43 25 25 -43 vhcurveto
                10 -17 rlineto
              </CharString>
              <CharString index="289">
                184 callsubr
                -100</CharString>
              <CharString index="290">
                -56 rmoveto
                83 56 -310 537 27 callsubr
                69 -225 rmoveto
              </CharString>
              <CharString index="291">
                197 callsubr
                83 67 67 83 vhcurveto
              </CharString>
              <CharString index="292">
                rmoveto
                100 -10 vlineto
                -83 -67 -67 -83 hvcurveto
                -10 100 10 vlineto
                28 22 22 28 vhcurveto
              </CharString>
              <CharString index="293">
                rmoveto
                -36 callsubr
                200 -50 rmoveto
                -25 callsubr
                100</CharString>
              <CharString index="294">
                85 50 -5 9 -13 24 6 33 25 11 rlinecurve
                11 5 -50 87 -9 -5</CharString>
              <CharString index="295">
                rmoveto
                -84 callsubr
                -300 100 rmoveto
                160 50 21 18</CharString>
              <CharString index="296">
                -170 vlineto
                58 23 62 42 65 hhcurveto
                0 -50 0 50 vvcurveto
                20 vlineto
              </CharString>
              <CharString index="297">
                19 rmoveto
                214 370 rlineto
                -116 hlineto
                -184 -319 rlineto
              </CharString>
              <CharString index="298">
                vlineto
                -25 7 -22 210 callsubr
              </CharString>
              <CharString index="299">
                -4 7 -10 -11 5 blend
                vvcurveto
                -28 -10 -28 -22 -32 5 2</CharString>
              <CharString index="300">
                350 hmoveto
                -26 callsubr
                -300 -250 rmoveto
                100</CharString>
              <CharString index="301">
                rmoveto
                -50 vlineto
                -60 15 -69 85 -21 vhcurveto
                200 vlineto
                -50 vmoveto
              </CharString>
              <CharString index="302">
                -90 72 -73 90 90 73 73 90 34 -10 32 -18 26 vhcurveto
              </CharString>
              <CharString index="303">
                -8 -84 73 126 -87 -50 rlineto
                145 hlineto
                -76 35</CharString>
              <CharString index="304">
                vlineto
                216 callsubr
                67 -67 83</CharString>
              <CharString index="305">
                24 -7 23 -12 20 vhcurveto
                -21 -27 -31 -19 -35 -5 rrcurveto
              </CharString>
              <CharString index="306">
                100 -20 vlineto
                -50 0 50 0 -65 -42 -62 -58 -23 hvcurveto
              </CharString>
              <CharString index="307">
                150 100 -37 callsubr
                -150 hmoveto
                100</CharString>
              <CharString index="308">
                209 callsubr
                200</CharString>
              <CharString index="309">
                rmoveto
                -153 153 -71 -71 124 -124 rlineto
              </CharString>
              <CharString index="310">
                rmoveto
                68 callsubr
                250 -100 rmoveto
                100</CharString>
              <CharString index="311">
                -28 -22 -22 -28 -28 -22 22 28 28 22 22 28</CharString>
              <CharString index="312">
                57 69 hvcurveto
                44 -100 -46 vlineto
                -13 -11 -11 -14</CharString>
              <CharString index="313">
                160 hmoveto
                -10 100 10 hlineto
                40 -100 rmoveto
                100</CharString>
              <CharString index="314">
                rmoveto
                210 -100 -210 vlineto
              </CharString>
              <CharString index="315">
                hlineto
                -13 -11 11 14 14 11 11 13 hvcurveto
              </CharString>
              <CharString index="316">
                60 100 -10 hlineto
                -41 -20 -36 -30 -23 vhcurveto
              </CharString>
              <CharString index="317">
                12 -20 vhcurveto
                21 27 31 19 35 5 rrcurveto
              </CharString>
              <CharString index="318">
                -50 hmoveto
                126 100 -126 hlineto
                225</CharString>
              <CharString index="319">
                -100 rmoveto
                60 hlineto
                -30 23 -20 36 41 vvcurveto
              </CharString>
              <CharString index="320">
                vlineto
                -14 -11 -11 -14 -69 -56 -56 -69</CharString>
              <CharString index="321">
                vlineto
                14 11 11 14 69 56 56 69</CharString>
              <CharString index="322">
                rmoveto
                -17 -45 -37 -36 -46 -15 rrcurveto
                -98</CharString>
              <CharString index="323">
                -55 -45 -45 -55 -55 -45 45 55 -83</CharString>
              <CharString index="324">
                71 71 -99 99 -177 -177 rlineto
              </CharString>
              <CharString index="325">
                250 vmoveto
                -100 230 100 vlineto
                80</CharString>
              <CharString index="326">
                -30 23 -20 36 41 vvcurveto
                -10 -100 hlineto
              </CharString>
              <CharString index="327">
                100 650 -100 hlineto
              </CharString>
        <CharString name=".notdef">
          0 vmoveto
          300 600 -300 hlineto
          50 -550 rmoveto
          500 200 -500 vlineto
          -7 537 rmoveto
          -222 -557 46 -19 223 557 rlineto
          -222 19 rmoveto
          -47 -19 223 -557 46 19 rlineto
        </CharString>
        <CharString name="glyph00003">
          0 vmoveto
          488 -82 1 blend
          hlineto
          -58 23 -42 62 65 10 192 callsubr
          4 4 6 5 blend
          59 callsubr
          7 5 -6 -7 -7 -5 -5 -7 -5 -4 2 4 -2 13 blend
          hvcurveto
          -6 37 -12 23 -39 15 16 33 -3 43 -19 34 -6 -42 -19 -35 -64 -32 -74 -37 -30 -75 25 -79 1 -7 2 -3 7 177 callsubr
          -17 -23 22 28 -10 3 3 -4 -5 2 5 blend
          hvcurveto
          -65 -42 -62 -58 -23 11 7 10 10 4 5 blend
          vhcurveto
        </CharString>
        <CharString name="glyph00004">
          50 67 rmoveto
          136 hlineto
          -10 -43 -47 -9 -52 8 rrcurveto
          -23 21 29 -14 34 hhcurveto
          63 51 51 63 hvcurveto
          33 -136 vlineto
          10 43 47 9 52 -8 rrcurveto
          23 -21 -29 14 -34 hhcurveto
          -63 -51 -51 -63 hvcurveto
        </CharString>
        <CharString name="glyph00006">
          31 callsubr
          vmoveto
          -46 callsubr
        </CharString>
        <CharString name="glyph00007">
          0 vmoveto
          -34 callsubr
        </CharString>
        <CharString name="glyph00008">
          100 hmoveto
          -79 callsubr
        </CharString>
        <CharString name="glyph00009">
          100 750 -59 callsubr
        </CharString>
        <CharString name="glyph00010">
          100 hmoveto
          -51 callsubr
        </CharString>
        <CharString name="glyph00011">
          0 vmoveto
          100 1000 -105 callsubr
          80 -61 callsubr
          -80 -80 -49 callsubr
        </CharString>
        <CharString name="glyph00012">
          57 callsubr
          hmoveto
          100 1000 -105 callsubr
          80 -61 callsubr
        </CharString>
        <CharString name="glyph00013">
          0 vmoveto
          100 1000 -105 callsubr
          80 -61 callsubr
        </CharString>
        <CharString name="glyph00014">
          200 callsubr
          1000 -105 callsubr
          130 -61 callsubr
        </CharString>
        <CharString name="glyph00015">
          60 callsubr
          hmoveto
          100 1000 -105 callsubr
          180 -61 callsubr
        </CharString>
        <CharString name="glyph00016">
          31 callsubr
          vmoveto
          -46 callsubr
          80 -61 callsubr
          -80 -80 -49 callsubr
        </CharString>
        <CharString name="glyph00017">
          57 callsubr
          750 33 callsubr
          -46 callsubr
          80 -61 callsubr
        </CharString>
        <CharString name="glyph00018">
          31 callsubr
          vmoveto
          -46 callsubr
          80 -61 callsubr
        </CharString>
        <CharString name="glyph00019">
          150 100 -37 callsubr
          -150 750 33 callsubr
          -46 callsubr
          130 -61 callsubr
        </CharString>
        <CharString name="glyph00020">
          60 callsubr
          750 33 callsubr
          -46 callsubr
          180 -61 callsubr
        </CharString>
        <CharString name="glyph00021">
          0 vmoveto
          -34 callsubr
          80 -800 280 1 blend
          -89 callsubr
          -80 -80 -49 callsubr
        </CharString>
        <CharString name="glyph00022">
          57 callsubr
          hmoveto
          -34 callsubr
          80 -800 280 1 blend
          -89 callsubr
        </CharString>
        <CharString name="glyph00023">
          0 vmoveto
          -34 callsubr
          80 -800 280 1 blend
          -89 callsubr
        </CharString>
        <CharString name="glyph00024">
          200 callsubr
          420 -200 1 blend
          -100 hlineto
          310 -30 1 blend
          vmoveto
          100 270 -170 54 callsubr
          -600 200 47 callsubr
          130 -800 280 1 blend
          -89 callsubr
        </CharString>
        <CharString name="glyph00025">
          60 callsubr
          hmoveto
          -34 callsubr
          180 -800 280 1 blend
          -89 callsubr
        </CharString>
        <CharString name="glyph00026">
          100 hmoveto
          -79 callsubr
          100 -980 -106 callsubr
          -89 callsubr
        </CharString>
        <CharString name="glyph00027">
          150 100 -37 callsubr
          -50 hmoveto
          -79 callsubr
          130 -980 -106 callsubr
          -89 callsubr
        </CharString>
        <CharString name="glyph00028">
          200 100 -55 callsubr
          -100 hmoveto
          -79 callsubr
          180 -980 -106 callsubr
          -89 callsubr
        </CharString>
        <CharString name="glyph00032">
          150 hmoveto
          500 hlineto
          1 100 rlineto
          -501 hlineto
          550 -110 137 callsubr
          -530 -230 -104 callsubr
        </CharString>
        <CharString name="glyph00033">
          150 hmoveto
          500 hlineto
          1 100 rlineto
          -501 hlineto
          550 -110 69 callsubr
          -150 -180 rmoveto
          -103 callsubr
          150 160 -100 callsubr
          -530 -230 -104 callsubr
        </CharString>
        <CharString name="glyph00034">
          -50 hmoveto
          200 250 -100 -150 -100 hlineto
          200 130 -100 callsubr
        </CharString>
        <CharString name="glyph00035">
          50 -10 137 callsubr
        </CharString>
        <CharString name="glyph00036">
          50 -10 69 callsubr
          -150 -180 rmoveto
          -103 callsubr
          150 160 -100 callsubr
        </CharString>
        <CharString name="glyph00037">
          -50 hmoveto
          200 300 -100 -200 -100 hlineto
          200 180 -100 callsubr
        </CharString>
        <CharString name="glyph00038">
          50 -10 rmoveto
          100 310 -100 hlineto
          -25 -450 rmoveto
          -107 callsubr
          125 430 -100 callsubr
        </CharString>
        <CharString name="glyph00039">
          50 -10 rmoveto
          100 310 -100 hlineto
          -150 -230 rmoveto
          -103 callsubr
          150 210 -100 callsubr
        </CharString>
        <CharString name="glyph00045">
          131 callsubr
          515 24 callsubr
          -17 -55 -133 -174 -34 113 155 callsubr
        </CharString>
        <CharString name="glyph00046">
          164 callsubr
          244 150 rmoveto
          100 vlineto
          -79 -54 108 47 -18 hvcurveto
          62 callsubr
          51 callsubr
          -7 -100 hlineto
          100 -150 -89 callsubr
        </CharString>
        <CharString name="glyph00047">
          88 90 rmoveto
          151 hlineto
          -47 11 -31 26 54 145 callsubr
          -52 callsubr
        </CharString>
        <CharString name="glyph00048">
          428 hmoveto
          100 vlineto
          -79 -54 108 47 -18 hvcurveto
          62 callsubr
          51 callsubr
          -295 -100 hlineto
        </CharString>
        <CharString name="glyph00049">
          398 -150 157 callsubr
        </CharString>
        <CharString name="glyph00050">
          94 callsubr
        </CharString>
        <CharString name="glyph00051">
          200 hmoveto
          100 100 -100 hlineto
          -112 -10 rmoveto
          151 hlineto
          -47 11 -31 26 54 145 callsubr
          250 100 -250 hlineto
          330 -100 -89 callsubr
        </CharString>
        <CharString name="glyph00052">
          425 vmoveto
          30 -27 21 -33 7 -40 rrcurveto
          17 10 15 8 14 hhcurveto
          22 15 -8 -23 11 hvcurveto
          6 -12 25 -70 7 -18 16 -40 22 -42 24 -37 rrcurveto
          -295 -100 658 24 callsubr
          -16 -50 -65 -79 -53 108 178 callsubr
        </CharString>
        <CharString name="glyph00053">
          366 100 rmoveto
          -100 110 100 vlineto
          -20 -100 -89 callsubr
          -58 -250 157 callsubr
        </CharString>
        <CharString name="glyph00054">
          94 callsubr
          280 -30 1 blend
          -100 -89 callsubr
        </CharString>
        <CharString name="glyph00055">
          88 90 rmoveto
          142 10 rlineto
          -34 -35 27 54 hvcurveto
          55 39 64 77 vvcurveto
          93 -72 80 -88 vhcurveto
          -190 66 callsubr
          rrcurveto
          16 8 28 34 39 13 5 0 17 hhcurveto
          43 47 -31 -43 hvcurveto
          -64 -41 -51 -80 vvcurveto
          -45 12 -28 17 -18 vhcurveto
          -138 -90 rmoveto
          280 100 -280 hlineto
          260 -100 -89 callsubr
        </CharString>
        <CharString name="glyph00058">
          123 callsubr
        </CharString>
        <CharString name="glyph00059">
          -75 callsubr
          -400 rmoveto
          -93 callsubr
          -100 -70 -97 callsubr
          -550 105 -81 callsubr
        </CharString>
        <CharString name="glyph00060">
          -75 callsubr
          -400 rmoveto
          -60 callsubr
          310 -81 callsubr
        </CharString>
        <CharString name="glyph00061">
          144 callsubr
          280 -81 callsubr
        </CharString>
        <CharString name="glyph00062">
          101 callsubr
        </CharString>
        <CharString name="glyph00063">
          106 callsubr
        </CharString>
        <CharString name="glyph00064">
          -75 callsubr
          -400 rmoveto
          650 100 -650 -73 callsubr
          -400 rmoveto
          -107 callsubr
          -125 330 -97 callsubr
          -550 105 -81 callsubr
        </CharString>
        <CharString name="glyph00065">
          -75 callsubr
          -250 rmoveto
          -63 callsubr
          -20 -81 callsubr
        </CharString>
        <CharString name="glyph00066">
          109 callsubr
        </CharString>
        <CharString name="glyph00067">
          -75 callsubr
          -400 rmoveto
          -62 callsubr
          280 -81 callsubr
        </CharString>
        <CharString name="glyph00068">
          144 callsubr
          -80 -49 callsubr
          -100 360 -81 callsubr
        </CharString>
        <CharString name="glyph00069">
          40 callsubr
          -530 -98 callsubr
        </CharString>
        <CharString name="glyph00070">
          123 callsubr
          -530 -98 callsubr
        </CharString>
        <CharString name="glyph00071">
          -75 callsubr
          -400 rmoveto
          -93 callsubr
          -100 -70 -97 callsubr
          -550 105 -81 callsubr
          -530 -98 callsubr
        </CharString>
        <CharString name="glyph00072">
          -75 callsubr
          -400 rmoveto
          -60 callsubr
          310 -81 callsubr
          -530 -98 callsubr
        </CharString>
        <CharString name="glyph00073">
          101 callsubr
          -530 -98 callsubr
        </CharString>
        <CharString name="glyph00074">
          106 callsubr
          -530 -98 callsubr
        </CharString>
        <CharString name="glyph00075">
          -75 callsubr
          -400 rmoveto
          650 100 -650 -73 callsubr
          -400 rmoveto
          -107 callsubr
          -125 330 -97 callsubr
          -550 105 -81 callsubr
          -530 -98 callsubr
        </CharString>
        <CharString name="glyph00076">
          -75 callsubr
          -250 rmoveto
          -63 callsubr
          -20 -81 callsubr
          -530 -98 callsubr
        </CharString>
        <CharString name="glyph00077">
          109 callsubr
          -530 -98 callsubr
        </CharString>
        <CharString name="glyph00078">
          -75 callsubr
          -400 rmoveto
          -62 callsubr
          280 -81 callsubr
          -530 -98 callsubr
        </CharString>
        <CharString name="glyph00079">
          0 vmoveto
          -93 callsubr
          25 150 -94 callsubr
          -675 -200 rmoveto
          100 800 -105 callsubr
        </CharString>
        <CharString name="glyph00080">
          0 vmoveto
          -57 callsubr
          -675 350 rmoveto
          100 800 -105 callsubr
        </CharString>
        <CharString name="glyph00081">
          0 vmoveto
          -93 callsubr
          -100 -70 -97 callsubr
          -550 -75 rmoveto
          100 800 -105 callsubr
        </CharString>
        <CharString name="glyph00082">
          0 vmoveto
          -60 callsubr
          130 rmoveto
          100 800 -105 callsubr
        </CharString>
        <CharString name="glyph00083">
          0 vmoveto
          -54 callsubr
          100 rmoveto
          100 800 -105 callsubr
        </CharString>
        <CharString name="glyph00084">
          700 hmoveto
          -67 callsubr
          -675 350 rmoveto
          100 800 -105 callsubr
        </CharString>
        <CharString name="glyph00085">
          700 hmoveto
          -66 callsubr
          -650 130 rmoveto
          100 800 -105 callsubr
        </CharString>
        <CharString name="glyph00086">
          0 vmoveto
          650 100 -650 -73 callsubr
          -400 rmoveto
          -107 callsubr
          -125 330 -97 callsubr
          -550 -75 rmoveto
          100 800 -105 callsubr
        </CharString>
        <CharString name="glyph00087">
          150 vmoveto
          -63 callsubr
          -200 rmoveto
          100 800 -105 callsubr
        </CharString>
        <CharString name="glyph00088">
          700 hmoveto
          -65 callsubr
          -700 100 rmoveto
          100 800 -105 callsubr
        </CharString>
        <CharString name="glyph00089">
          0 vmoveto
          -62 callsubr
          100 rmoveto
          100 800 -105 callsubr
        </CharString>
        <CharString name="glyph00090">
          0 vmoveto
          -93 callsubr
          25 150 -94 callsubr
          -675 -200 rmoveto
          100 800 -105 callsubr
          -1180 -106 callsubr
          -98 callsubr
        </CharString>
        <CharString name="glyph00091">
          0 vmoveto
          -57 callsubr
          -675 350 rmoveto
          100 800 -105 callsubr
          -1180 -106 callsubr
          -98 callsubr
        </CharString>
        <CharString name="glyph00092">
          0 vmoveto
          -93 callsubr
          -100 -70 -97 callsubr
          -550 -75 rmoveto
          100 800 -105 callsubr
          -1180 -106 callsubr
          -98 callsubr
        </CharString>
        <CharString name="glyph00093">
          0 vmoveto
          -60 callsubr
          130 rmoveto
          100 800 -105 callsubr
          -1180 -106 callsubr
          -98 callsubr
        </CharString>
        <CharString name="glyph00094">
          0 vmoveto
          -54 callsubr
          100 rmoveto
          100 800 -105 callsubr
          -1180 -106 callsubr
          -98 callsubr
        </CharString>
        <CharString name="glyph00095">
          700 hmoveto
          -67 callsubr
          -675 350 rmoveto
          100 800 -105 callsubr
          -1180 -106 callsubr
          -98 callsubr
        </CharString>
        <CharString name="glyph00096">
          700 hmoveto
          -66 callsubr
          -650 130 rmoveto
          100 800 -105 callsubr
          -1180 -106 callsubr
          -98 callsubr
        </CharString>
        <CharString name="glyph00097">
          0 vmoveto
          650 100 -650 -73 callsubr
          -400 rmoveto
          -107 callsubr
          -125 330 -97 callsubr
          -550 -75 rmoveto
          100 800 -105 callsubr
          -1180 -106 callsubr
          -98 callsubr
        </CharString>
        <CharString name="glyph00098">
          150 vmoveto
          -63 callsubr
          -200 rmoveto
          100 800 -105 callsubr
          -1180 -106 callsubr
          -98 callsubr
        </CharString>
        <CharString name="glyph00099">
          700 hmoveto
          -65 callsubr
          -700 100 rmoveto
          100 800 -105 callsubr
          -1180 -106 callsubr
          -98 callsubr
        </CharString>
        <CharString name="glyph00100">
          0 vmoveto
          -62 callsubr
          100 rmoveto
          100 800 -105 callsubr
          -1180 -106 callsubr
          -98 callsubr
        </CharString>
        <CharString name="glyph00101">
          0 vmoveto
          -93 callsubr
          25 150 -94 callsubr
          -675 -200 -91 callsubr
        </CharString>
        <CharString name="glyph00102">
          0 vmoveto
          -57 callsubr
          -675 350 -91 callsubr
        </CharString>
        <CharString name="glyph00103">
          0 vmoveto
          -93 callsubr
          -100 -70 -97 callsubr
          -550 -75 -91 callsubr
        </CharString>
        <CharString name="glyph00104">
          0 vmoveto
          -60 callsubr
          130 -91 callsubr
        </CharString>
        <CharString name="glyph00105">
          0 vmoveto
          -54 callsubr
          100 -91 callsubr
        </CharString>
        <CharString name="glyph00106">
          700 hmoveto
          -67 callsubr
          -675 350 -91 callsubr
        </CharString>
        <CharString name="glyph00107">
          700 hmoveto
          -66 callsubr
          -650 130 -91 callsubr
        </CharString>
        <CharString name="glyph00108">
          0 vmoveto
          650 100 -650 -73 callsubr
          -400 rmoveto
          -107 callsubr
          -125 330 -97 callsubr
          -550 -75 -91 callsubr
        </CharString>
        <CharString name="glyph00109">
          150 vmoveto
          -63 callsubr
          -200 -91 callsubr
        </CharString>
        <CharString name="glyph00110">
          700 hmoveto
          -65 callsubr
          -700 100 -91 callsubr
        </CharString>
        <CharString name="glyph00111">
          0 vmoveto
          -62 callsubr
          100 -91 callsubr
        </CharString>
        <CharString name="glyph00112">
          0 vmoveto
          -93 callsubr
          25 150 -94 callsubr
          -675 -200 -91 callsubr
          -1180 -106 callsubr
          -98 callsubr
        </CharString>
        <CharString name="glyph00113">
          0 vmoveto
          -57 callsubr
          -675 350 -91 callsubr
          -1180 -106 callsubr
          -98 callsubr
        </CharString>
        <CharString name="glyph00114">
          0 vmoveto
          -93 callsubr
          -100 -70 -97 callsubr
          -550 -75 -91 callsubr
          -1180 -106 callsubr
          -98 callsubr
        </CharString>
        <CharString name="glyph00115">
          0 vmoveto
          -60 callsubr
          130 -91 callsubr
          -1180 -106 callsubr
          -98 callsubr
        </CharString>
        <CharString name="glyph00116">
          0 vmoveto
          -54 callsubr
          100 -91 callsubr
          -1180 -106 callsubr
          -98 callsubr
        </CharString>
        <CharString name="glyph00117">
          700 hmoveto
          -67 callsubr
          -675 350 -91 callsubr
          -1180 -106 callsubr
          -98 callsubr
        </CharString>
        <CharString name="glyph00118">
          700 hmoveto
          -66 callsubr
          -650 130 -91 callsubr
          -1180 -106 callsubr
          -98 callsubr
        </CharString>
        <CharString name="glyph00119">
          0 vmoveto
          650 100 -650 -73 callsubr
          -400 rmoveto
          -107 callsubr
          -125 330 -97 callsubr
          -550 -75 -91 callsubr
          -1180 -106 callsubr
          -98 callsubr
        </CharString>
        <CharString name="glyph00120">
          150 vmoveto
          -63 callsubr
          -200 -91 callsubr
          -1180 -106 callsubr
          -98 callsubr
        </CharString>
        <CharString name="glyph00121">
          700 hmoveto
          -65 callsubr
          -700 100 -91 callsubr
          -1180 -106 callsubr
          -98 callsubr
        </CharString>
        <CharString name="glyph00122">
          0 vmoveto
          -62 callsubr
          100 -91 callsubr
          -1180 -106 callsubr
          -98 callsubr
        </CharString>
        <CharString name="glyph00123">
          0 vmoveto
          -93 callsubr
          25 150 -94 callsubr
          -675 350 -90 callsubr
        </CharString>
        <CharString name="glyph00124">
          0 vmoveto
          -57 callsubr
          -675 900 -90 callsubr
        </CharString>
        <CharString name="glyph00125">
          0 vmoveto
          -93 callsubr
          -100 -70 -97 callsubr
          -550 475 -90 callsubr
        </CharString>
        <CharString name="glyph00126">
          0 vmoveto
          -60 callsubr
          680 -90 callsubr
        </CharString>
        <CharString name="glyph00127">
          0 vmoveto
          -54 callsubr
          650 -90 callsubr
        </CharString>
        <CharString name="glyph00128">
          700 hmoveto
          -67 callsubr
          -675 900 -90 callsubr
        </CharString>
        <CharString name="glyph00129">
          700 hmoveto
          -66 callsubr
          -650 680 -90 callsubr
        </CharString>
        <CharString name="glyph00130">
          0 vmoveto
          650 100 -650 -73 callsubr
          -400 rmoveto
          -107 callsubr
          -125 330 -97 callsubr
          -550 475 -90 callsubr
        </CharString>
        <CharString name="glyph00131">
          150 vmoveto
          -63 callsubr
          350 -90 callsubr
        </CharString>
        <CharString name="glyph00132">
          700 hmoveto
          -65 callsubr
          -700 650 -90 callsubr
        </CharString>
        <CharString name="glyph00133">
          0 vmoveto
          -62 callsubr
          650 -90 callsubr
        </CharString>
        <CharString name="glyph00134">
          0 vmoveto
          -93 callsubr
          25 150 -94 callsubr
          -675 350 -90 callsubr
          -1180 -106 callsubr
          -98 callsubr
        </CharString>
        <CharString name="glyph00135">
          0 vmoveto
          -57 callsubr
          -675 900 -90 callsubr
          -1180 -106 callsubr
          -98 callsubr
        </CharString>
        <CharString name="glyph00136">
          0 vmoveto
          -93 callsubr
          -100 -70 -97 callsubr
          -550 475 -90 callsubr
          -1180 -106 callsubr
          -98 callsubr
        </CharString>
        <CharString name="glyph00137">
          0 vmoveto
          -60 callsubr
          680 -90 callsubr
          -1180 -106 callsubr
          -98 callsubr
        </CharString>
        <CharString name="glyph00138">
          0 vmoveto
          -54 callsubr
          650 -90 callsubr
          -1180 -106 callsubr
          -98 callsubr
        </CharString>
        <CharString name="glyph00139">
          700 hmoveto
          -67 callsubr
          -675 900 -90 callsubr
          -1180 -106 callsubr
          -98 callsubr
        </CharString>
        <CharString name="glyph00140">
          700 hmoveto
          -66 callsubr
          -650 680 -90 callsubr
          -1180 -106 callsubr
          -98 callsubr
        </CharString>
        <CharString name="glyph00141">
          0 vmoveto
          650 100 -650 -73 callsubr
          -400 rmoveto
          -107 callsubr
          -125 330 -97 callsubr
          -550 475 -90 callsubr
          -1180 -106 callsubr
          -98 callsubr
        </CharString>
        <CharString name="glyph00142">
          150 vmoveto
          -63 callsubr
          350 -90 callsubr
          -1180 -106 callsubr
          -98 callsubr
        </CharString>
        <CharString name="glyph00143">
          700 hmoveto
          -65 callsubr
          -700 650 -90 callsubr
          -1180 -106 callsubr
          -98 callsubr
        </CharString>
        <CharString name="glyph00144">
          0 vmoveto
          -62 callsubr
          650 -90 callsubr
          -1180 -106 callsubr
          -98 callsubr
        </CharString>
        <CharString name="glyph00147">
          161 callsubr
        </CharString>
        <CharString name="glyph00148">
          45 callsubr
        </CharString>
        <CharString name="glyph00149">
          161 callsubr
          -77 101 rmoveto
          -100 77 100 vlineto
        </CharString>
        <CharString name="glyph00152">
          200 29 callsubr
          150 -100 rmoveto
          58 callsubr
          -200 -250 rmoveto
          176 callsubr
          300 230 8 callsubr
          -50 hmoveto
          -48 callsubr
        </CharString>
        <CharString name="glyph00153">
          300 hmoveto
          316 vlineto
          13 callsubr
          -250 174 callsubr
        </CharString>
        <CharString name="glyph00154">
          193 callsubr
          150 -100 hlineto
          -100 -150 203 callsubr
          200 -100 hlineto
          250 30 rmoveto
          -48 callsubr
          -50 -50 -100 callsubr
          -50 -50 -100 callsubr
        </CharString>
        <CharString name="glyph00155">
          193 callsubr
          250 -100 hlineto
          -100 -250 203 callsubr
          250 -100 hlineto
          250 -20 8 callsubr
          -50 hmoveto
          -48 callsubr
        </CharString>
        <CharString name="glyph00156">
          50 hmoveto
          100 316 hlineto
          13 callsubr
          -100 -250 26 callsubr
        </CharString>
        <CharString name="glyph00157">
          50 hmoveto
          -25 callsubr
          150 -150 -38 callsubr
          150 -200 146 callsubr
          330 -100 callsubr
          -50 -50 -100 callsubr
          400 100 -100 callsubr
        </CharString>
        <CharString name="glyph00158">
          50 hmoveto
          58 callsubr
          150 -250 146 callsubr
          380 8 callsubr
          400 hmoveto
          -48 callsubr
        </CharString>
        <CharString name="glyph00159">
          50 hmoveto
          100 316 hlineto
          13 callsubr
          -100 -250 rmoveto
          -36 callsubr
          375 -250 rmoveto
          -107 callsubr
        </CharString>
        <CharString name="glyph00160">
          50 hmoveto
          -25 callsubr
          150 -150 -38 callsubr
          150 -200 -71 callsubr
          -400 -250 rmoveto
          -24 callsubr
          280 -100 rmoveto
          220 100 -220 hlineto
          -55 -250 rmoveto
          -107 callsubr
          125 330 -100 callsubr
          -50 -50 -100 callsubr
          400 100 -100 callsubr
        </CharString>
        <CharString name="glyph00161">
          50 hmoveto
          58 callsubr
          150 -250 -71 callsubr
          -400 -250 rmoveto
          -24 callsubr
          280 -100 rmoveto
          220 100 -220 hlineto
          -55 -250 rmoveto
          -107 callsubr
          125 380 8 callsubr
          400 hmoveto
          -48 callsubr
        </CharString>
        <CharString name="glyph00162">
          50 hmoveto
          100 316 hlineto
          13 callsubr
          -100 -250 rmoveto
          -24 callsubr
          280 -100 rmoveto
          220 100 -220 hlineto
          -55 -250 rmoveto
          -107 callsubr
        </CharString>
        <CharString name="glyph00163">
          533 87 rmoveto
          127 1 -323 413 -97 -121 rlineto
          0 41 32 30 -41 vhcurveto
          -160 -284 rmoveto
          126 hlineto
          -133 170 -94 -122 rlineto
          0 39 30 31 -39 vhcurveto
          -170 -126 rmoveto
          701 100 -701 hlineto
          391 -13 rmoveto
          126 hlineto
          -228 292 -94 -121 rlineto
          0 39 30 30 -39 vhcurveto
        </CharString>
        <CharString name="glyph00166">
          -35 callsubr
          -57 callsubr
          -575 380 -100 callsubr
        </CharString>
        <CharString name="glyph00167">
          -35 callsubr
          -93 callsubr
          -100 -70 -97 callsubr
          -450 -45 -100 callsubr
        </CharString>
        <CharString name="glyph00168">
          -35 callsubr
          44 callsubr
          -550 160 -100 callsubr
        </CharString>
        <CharString name="glyph00169">
          -35 callsubr
          138 callsubr
        </CharString>
        <CharString name="glyph00170">
          -30 callsubr
          600 hmoveto
          -67 callsubr
          -575 380 -100 callsubr
        </CharString>
        <CharString name="glyph00171">
          -30 callsubr
          600 hmoveto
          -66 callsubr
          -550 160 -100 callsubr
        </CharString>
        <CharString name="glyph00172">
          -35 callsubr
          650 100 -650 -73 callsubr
          -400 rmoveto
          -107 callsubr
          -125 330 -97 callsubr
          -450 -45 -100 callsubr
        </CharString>
        <CharString name="glyph00173">
          -30 callsubr
          -100 150 rmoveto
          -72 callsubr
          -250 61 callsubr
          -100 10 callsubr
          25 330 -94 callsubr
          -575 -170 -100 callsubr
        </CharString>
        <CharString name="glyph00174">
          -30 callsubr
          600 hmoveto
          -65 callsubr
          -600 130 -100 callsubr
        </CharString>
        <CharString name="glyph00175">
          -35 callsubr
          41 callsubr
          -600 130 -100 callsubr
        </CharString>
        <CharString name="glyph00176">
          -42 callsubr
          -93 callsubr
          25 150 -94 callsubr
          -805 -300 rmoveto
          -100 120 100 vlineto
          110 130 -100 callsubr
        </CharString>
        <CharString name="glyph00177">
          -42 callsubr
          -57 callsubr
          -805 250 -96 callsubr
          110 130 -100 callsubr
        </CharString>
        <CharString name="glyph00178">
          -42 callsubr
          -93 callsubr
          -100 -70 -97 callsubr
          -450 -45 -100 callsubr
        </CharString>
        <CharString name="glyph00179">
          -42 callsubr
          44 callsubr
          -550 160 -100 callsubr
        </CharString>
        <CharString name="glyph00180">
          -42 callsubr
          138 callsubr
        </CharString>
        <CharString name="glyph00181">
          -16 callsubr
          680 -100 rmoveto
          -67 callsubr
          -575 380 -100 callsubr
        </CharString>
        <CharString name="glyph00182">
          -16 callsubr
          680 -100 rmoveto
          -66 callsubr
          -550 160 -100 callsubr
        </CharString>
        <CharString name="glyph00183">
          -42 callsubr
          650 100 -650 -73 callsubr
          -400 rmoveto
          -107 callsubr
          -125 330 -97 callsubr
          -450 -45 -100 callsubr
        </CharString>
        <CharString name="glyph00184">
          -16 callsubr
          -20 50 rmoveto
          -72 callsubr
          -250 61 callsubr
          -100 10 callsubr
          25 330 -94 callsubr
          -575 -170 -100 callsubr
        </CharString>
        <CharString name="glyph00185">
          -16 callsubr
          680 -100 rmoveto
          -65 callsubr
          -600 130 -100 callsubr
        </CharString>
        <CharString name="glyph00186">
          -42 callsubr
          41 callsubr
          -600 130 -100 callsubr
        </CharString>
        <CharString name="glyph00189">
          -92 callsubr
          -100 vmoveto
          124 callsubr
          20 -1200 -102 callsubr
        </CharString>
        <CharString name="glyph00190">
          -92 callsubr
          -100 vmoveto
          -93 callsubr
          -100 -70 -97 callsubr
          -550 -275 rmoveto
          100 1000 -105 callsubr
          20 -1200 -102 callsubr
        </CharString>
        <CharString name="glyph00191">
          -92 callsubr
          -100 vmoveto
          -60 callsubr
          -70 rmoveto
          100 1000 -105 callsubr
          20 -1200 -102 callsubr
        </CharString>
        <CharString name="glyph00192">
          -92 callsubr
          -100 vmoveto
          -54 callsubr
          -100 rmoveto
          100 1000 -105 callsubr
          20 -1200 -102 callsubr
        </CharString>
        <CharString name="glyph00193">
          -92 callsubr
          700 -100 rmoveto
          -67 callsubr
          -675 150 rmoveto
          100 1000 -105 callsubr
          20 -1200 -102 callsubr
        </CharString>
        <CharString name="glyph00194">
          -92 callsubr
          700 -100 rmoveto
          -66 callsubr
          -650 -70 rmoveto
          100 1000 -105 callsubr
          20 -1200 -102 callsubr
        </CharString>
        <CharString name="glyph00195">
          -92 callsubr
          -100 vmoveto
          650 100 -650 -73 callsubr
          -400 rmoveto
          -107 callsubr
          -125 330 -97 callsubr
          -550 -275 rmoveto
          100 1000 -105 callsubr
          20 -1200 -102 callsubr
        </CharString>
        <CharString name="glyph00196">
          -101 callsubr
          -63 callsubr
          -400 rmoveto
          100 1000 -105 callsubr
          20 -1200 -102 callsubr
        </CharString>
        <CharString name="glyph00197">
          -92 callsubr
          700 -100 rmoveto
          -65 callsubr
          -700 -100 rmoveto
          100 1000 -105 callsubr
          20 -1200 -102 callsubr
        </CharString>
        <CharString name="glyph00198">
          -92 callsubr
          -100 vmoveto
          -62 callsubr
          -100 rmoveto
          100 1000 -105 callsubr
          20 -1200 -102 callsubr
        </CharString>
        <CharString name="glyph00199">
          -39 callsubr
          -93 callsubr
          25 150 -94 callsubr
          -675 -400 rmoveto
          100 1000 -105 callsubr
        </CharString>
        <CharString name="glyph00200">
          -39 callsubr
          124 callsubr
        </CharString>
        <CharString name="glyph00201">
          -39 callsubr
          -93 callsubr
          -100 -70 -97 callsubr
          -550 -275 rmoveto
          100 1000 -105 callsubr
        </CharString>
        <CharString name="glyph00202">
          -39 callsubr
          -60 callsubr
          -70 rmoveto
          100 1000 -105 callsubr
        </CharString>
        <CharString name="glyph00203">
          -39 callsubr
          -54 callsubr
          -100 rmoveto
          100 1000 -105 callsubr
        </CharString>
        <CharString name="glyph00204">
          -50 100 -96 callsubr
          680 -100 rmoveto
          -67 callsubr
          -675 150 rmoveto
          100 1000 -105 callsubr
        </CharString>
        <CharString name="glyph00205">
          -50 100 -96 callsubr
          680 -100 rmoveto
          -66 callsubr
          -650 -70 rmoveto
          100 1000 -105 callsubr
        </CharString>
        <CharString name="glyph00206">
          -39 callsubr
          650 100 -650 -73 callsubr
          -400 rmoveto
          -107 callsubr
          -125 330 -97 callsubr
          -550 -275 rmoveto
          100 1000 -105 callsubr
        </CharString>
        <CharString name="glyph00207">
          -50 100 -96 callsubr
          -20 50 rmoveto
          -63 callsubr
          -400 rmoveto
          100 1000 -105 callsubr
        </CharString>
        <CharString name="glyph00208">
          -50 100 -96 callsubr
          680 -100 rmoveto
          -65 callsubr
          -700 -100 rmoveto
          100 1000 -105 callsubr
        </CharString>
        <CharString name="glyph00209">
          -39 callsubr
          -62 callsubr
          -100 rmoveto
          100 1000 -105 callsubr
        </CharString>
        <CharString name="glyph00212">
          250 -150 rmoveto
          55 49 22 28 46 hvcurveto
          -149 -32 -68 48 14 85 rrcurveto
          106 17 137 93 149 hhcurveto
          -113 88 rlineto
          -151 -32 -136 -118 -137 vvcurveto
          -98 67 -53 83 vhcurveto
          50 150 188 callsubr
          20 14 29 5 rlinecurve
          2 10 0 11 18 13 18 -13 0 -11 2 -10 29 -5 20 -14 154 callsubr
          47 58 -7 -24 54 hvcurveto
          22 26 28 23 31 20 -40 25 -46 18 -51 10 rrcurveto
          153 -200 rmoveto
          18 -24 15 -30 11 -37 96 29 rcurveline
          -14 46 -20 41 -26 34 -31 -16 -28 -20 -21 -23 rrcurveto
        </CharString>
        <CharString name="glyph00213">
          236 190 callsubr
          -220 vmoveto
          -84 callsubr
          64 69 rmoveto
          86 51 -184 319 rlineto
          -116 hlineto
          150 -389 rmoveto
          -36 callsubr
          -92 189 180 callsubr
          -225 -514 148 callsubr
        </CharString>
        <CharString name="glyph00214">
          -50 hmoveto
          -36 callsubr
          300 -100 rmoveto
          171 51 149 29 100 hhcurveto
          -113 88 -141 -30 -100 -90 -42 -139 rlinecurve
          196 -29 110 callsubr
          153 -201 rmoveto
          18 -24 15 -30 11 -36 96 29 rcurveline
          -14 48 -21 41 -28 36 -30 -16 -26 -22 -21 -26 rrcurveto
        </CharString>
        <CharString name="glyph00215">
          286 190 callsubr
          -250 -70 rmoveto
          550 100 -550 hlineto
          314 -81 rmoveto
          86 51 -184 319 rlineto
          -116 hlineto
          58 -100 180 callsubr
        </CharString>
        <CharString name="glyph00216">
          228 hmoveto
          86 50 -200 346 -64 -88 64 -88 133 231 -57 99 -57 -99 133 -231 65 87 -141 243 -140 -242 rlineto
          -100 -308 rmoveto
          203 hlineto
          37 100 38 -100 rlineto
          103 100 -381 hlineto
          203 -100 rmoveto
          178 307 -64 89 -200 -346 rlineto
        </CharString>
        <CharString name="glyph00217">
          -50 hmoveto
          175 100 -175 hlineto
          375 -100 rmoveto
          75 100 -75 hlineto
          -275 150 rmoveto
          26 23 -2 -3 21 hvcurveto
          24 27 31 24 37 17 -14 6 -15 5 -15 4 12 30 20 19 25 15 25 -15 19 -19 13 -30 rrcurveto
          -122 -33 -86 -84 -111 vvcurveto
          -139 89 -79 51 -32 vhcurveto
          -26 50 -19 89 62 vvcurveto
          142 83 57 148 vhcurveto
          1 112 -68 104 -108 34 -108 -34 -68 -104 1 -112 rrcurveto
          183 -57 rmoveto
          31 -31 17 -46 -65 vvcurveto
          -62 -19 -89 -26 -50 vhcurveto
          51 32 89 79 139 vvcurveto
          51 -18 46 -32 37 vhcurveto
          -42 -7 -31 -14 -20 -20 rrcurveto
        </CharString>
        <CharString name="glyph00218">
          -50 hmoveto
          290 100 -290 hlineto
          330 -250 rmoveto
          -65 124 41 98 77 60 rrcurveto
          52 67 85 16 65 hhcurveto
          -113 88 -123 -26 -72 -68 -38 -58 rlinecurve
          -74 -113 48 -142 102 -31 rrcurveto
          70 150 110 callsubr
          154 -197 rmoveto
          49 -60 17 -84 -53 -100 102 31 48 142 -74 113 -4 5 -3 6 -5 6 -27 -15 -27 -18 -23 -26 rrcurveto
        </CharString>
        <CharString name="glyph00219">
          119 265 rmoveto
          24 19 26 15 22 16 -20 17 -16 19 -7 28 -7 28 6 29 28 14 rrcurveto
          -45 -49 -30 -70 -35 16 -27 22 -23 hvcurveto
          -169 -265 rmoveto
          400 100 hlineto
          78 -31 42 -38 31 vhcurveto
          -23 -22 -27 -18 -23 -17 rrcurveto
          29 -25 13 -23 -46 vvcurveto
          -100 hlineto
          50 15 23 35 27 vhcurveto
          52 40 67 39 71 vvcurveto
          70 -49 30 -45 vhcurveto
          28 -14 6 -29 -7 -28 rrcurveto
          -27 -111 -175 16 -184 vvcurveto
          -100 hlineto
        </CharString>
        <CharString name="glyph00220">
          288 150 rmoveto
          -28 -10 -28 -22 -32 59 callsubr
          hvcurveto
          50 callsubr
          rrcurveto
          -100 -100 438 65 callsubr
        </CharString>
        <CharString name="glyph00224">
          150 hmoveto
          450 100 -450 hlineto
          550 -100 rmoveto
          18 callsubr
          225 -250 rmoveto
          -107 callsubr
          25 350 -68 callsubr
          -380 -240 -104 callsubr
        </CharString>
        <CharString name="glyph00225">
          150 hmoveto
          450 100 -450 hlineto
          550 -100 rmoveto
          18 callsubr
          100 -30 rmoveto
          -103 callsubr
          50 130 -68 callsubr
          -380 -240 -104 callsubr
        </CharString>
        <CharString name="glyph00226">
          -50 hmoveto
          -74 callsubr
          250 -100 -38 callsubr
          0 vmoveto
          0 callsubr
        </CharString>
        <CharString name="glyph00227">
          200 hmoveto
          18 callsubr
          225 -250 rmoveto
          -107 callsubr
          25 350 -68 callsubr
        </CharString>
        <CharString name="glyph00228">
          200 hmoveto
          18 callsubr
          100 -30 rmoveto
          -103 callsubr
          50 130 -68 callsubr
        </CharString>
        <CharString name="glyph00232">
          -101 callsubr
          16 callsubr
          525 -400 rmoveto
          -107 callsubr
          -300 585 -86 callsubr
          -305 -980 -102 callsubr
        </CharString>
        <CharString name="glyph00233">
          -101 callsubr
          140 hlineto
          285 285 -62 78 rlineto
          -421 -413 -43 callsubr
          -175 160 -86 callsubr
          -305 -980 -102 callsubr
        </CharString>
        <CharString name="glyph00234">
          -101 callsubr
          16 callsubr
          400 -180 rmoveto
          -103 callsubr
          -275 365 -86 callsubr
          -305 -980 -102 callsubr
        </CharString>
        <CharString name="glyph00235">
          -101 callsubr
          158 callsubr
          -160 -95 callsubr
          -325 335 -86 callsubr
          -305 -980 -102 callsubr
        </CharString>
        <CharString name="glyph00236">
          -101 callsubr
          86 callsubr
          -305 -980 -102 callsubr
        </CharString>
        <CharString name="glyph00237">
          -101 callsubr
          11 callsubr
          -205 vmoveto
          -103 callsubr
          -275 365 -86 callsubr
          -305 -980 -102 callsubr
        </CharString>
        <CharString name="glyph00238">
          -101 callsubr
          11 callsubr
          125 -425 rmoveto
          -107 callsubr
          -300 585 -86 callsubr
          -305 -980 -102 callsubr
        </CharString>
        <CharString name="glyph00239">
          -101 callsubr
          87 callsubr
          -305 -980 -102 callsubr
        </CharString>
        <CharString name="glyph00240">
          -101 callsubr
          95 callsubr
          -305 -980 -102 callsubr
        </CharString>
        <CharString name="glyph00241">
          -101 callsubr
          90 callsubr
          -305 -980 -102 callsubr
        </CharString>
        <CharString name="glyph00242">
          -92 callsubr
          -58 hmoveto
          -19 callsubr
          -250 -71 callsubr
          -25 150 -94 callsubr
          -625 -250 -88 callsubr
          -100 -1100 -102 callsubr
        </CharString>
        <CharString name="glyph00243">
          -92 callsubr
          -58 hmoveto
          -32 callsubr
          525 -400 rmoveto
          -107 callsubr
          -625 300 -88 callsubr
          -100 -1100 -102 callsubr
        </CharString>
        <CharString name="glyph00244">
          -92 callsubr
          -58 hmoveto
          139 callsubr
          -500 -125 -88 callsubr
          -100 -1100 -102 callsubr
        </CharString>
        <CharString name="glyph00245">
          -92 callsubr
          -58 hmoveto
          -32 callsubr
          400 -180 rmoveto
          -103 callsubr
          -600 80 -88 callsubr
          -100 -1100 -102 callsubr
        </CharString>
        <CharString name="glyph00246">
          -92 callsubr
          -58 hmoveto
          -19 callsubr
          -160 -95 callsubr
          -650 50 -88 callsubr
          -100 -1100 -102 callsubr
        </CharString>
        <CharString name="glyph00247">
          -92 callsubr
          -58 hmoveto
          2 callsubr
          -550 vmoveto
          -107 callsubr
          -625 300 -88 callsubr
          -100 -1100 -102 callsubr
        </CharString>
        <CharString name="glyph00248">
          -92 callsubr
          -58 hmoveto
          -33 callsubr
          -205 vmoveto
          -103 callsubr
          -600 80 -88 callsubr
          -100 -1100 -102 callsubr
        </CharString>
        <CharString name="glyph00249">
          -92 callsubr
          -58 hmoveto
          -33 callsubr
          125 -425 rmoveto
          -107 callsubr
          -625 300 -88 callsubr
          -100 -1100 -102 callsubr
        </CharString>
        <CharString name="glyph00250">
          -92 callsubr
          -58 hmoveto
          2 callsubr
          -125 -330 rmoveto
          -103 callsubr
          -600 80 -88 callsubr
          -100 -1100 -102 callsubr
        </CharString>
        <CharString name="glyph00251">
          -92 callsubr
          -58 hmoveto
          4 callsubr
          550 -30 rmoveto
          -103 callsubr
          50 20 -95 callsubr
          -650 50 -88 callsubr
          -100 -1100 -102 callsubr
        </CharString>
        <CharString name="glyph00252">
          -92 callsubr
          -58 hmoveto
          85 callsubr
          -100 -1100 -102 callsubr
        </CharString>
        <CharString name="glyph00253">
          -101 callsubr
          141 hlineto
          422 422 -103 39 rlineto
          -6 -72 rmoveto
          109 33 -321 321 -71 -70 rlineto
          -229 -723 -44 callsubr
          -369 479 -85 callsubr
          -167 -807 -104 callsubr
        </CharString>
        <CharString name="glyph00254">
          -101 callsubr
          102 callsubr
          -167 -807 -104 callsubr
        </CharString>
        <CharString name="glyph00255">
          -101 callsubr
          141 hlineto
          422 422 -103 39 rlineto
          -6 -72 rmoveto
          109 33 -321 321 -71 -70 rlineto
          -229 -723 -43 callsubr
          -244 604 -85 callsubr
          -167 -807 -104 callsubr
        </CharString>
        <CharString name="glyph00256">
          -101 callsubr
          43 callsubr
          400 -180 rmoveto
          -103 callsubr
          -344 809 -85 callsubr
          -167 -807 -104 callsubr
        </CharString>
        <CharString name="glyph00257">
          -101 callsubr
          108 callsubr
          -160 -95 callsubr
          -394 779 -85 callsubr
          -167 -807 -104 callsubr
        </CharString>
        <CharString name="glyph00258">
          -101 callsubr
          83 callsubr
          -167 -807 -104 callsubr
        </CharString>
        <CharString name="glyph00259">
          -101 callsubr
          -2 callsubr
          -205 vmoveto
          -103 callsubr
          -344 809 -85 callsubr
          -167 -807 -104 callsubr
        </CharString>
        <CharString name="glyph00260">
          -101 callsubr
          -2 callsubr
          125 -425 rmoveto
          -107 callsubr
          -369 1029 -85 callsubr
          -167 -807 -104 callsubr
        </CharString>
        <CharString name="glyph00261">
          -101 callsubr
          141 hlineto
          422 422 -103 39 rlineto
          -6 -72 rmoveto
          109 33 -321 321 -71 -70 rlineto
          -229 -723 -22 callsubr
          -125 -330 rmoveto
          -103 callsubr
          -344 809 -85 callsubr
          -167 -807 -104 callsubr
        </CharString>
        <CharString name="glyph00262">
          -101 callsubr
          92 callsubr
          -167 -807 -104 callsubr
        </CharString>
        <CharString name="glyph00263">
          -101 callsubr
          88 callsubr
          -167 -807 -104 callsubr
        </CharString>
        <CharString name="glyph00264">
          -101 callsubr
          -84 callsubr
          -58 -150 -44 callsubr
          -554 -221 -87 callsubr
          -100 -1100 -102 callsubr
        </CharString>
        <CharString name="glyph00265">
          -101 callsubr
          80 callsubr
          -100 -1100 -102 callsubr
        </CharString>
        <CharString name="glyph00266">
          -101 callsubr
          -84 callsubr
          -58 -150 -43 callsubr
          -429 -96 -87 callsubr
          -100 -1100 -102 callsubr
        </CharString>
        <CharString name="glyph00267">
          -101 callsubr
          82 callsubr
          -100 -1100 -102 callsubr
        </CharString>
        <CharString name="glyph00268">
          -101 callsubr
          133 callsubr
          -160 -95 callsubr
          -579 79 -87 callsubr
          -100 -1100 -102 callsubr
        </CharString>
        <CharString name="glyph00269">
          -101 callsubr
          -4 callsubr
          -550 vmoveto
          -107 callsubr
          -554 329 -87 callsubr
          -100 -1100 -102 callsubr
        </CharString>
        <CharString name="glyph00270">
          -101 callsubr
          -3 callsubr
          -205 vmoveto
          -103 callsubr
          -529 109 -87 callsubr
          -100 -1100 -102 callsubr
        </CharString>
        <CharString name="glyph00271">
          -101 callsubr
          -3 callsubr
          125 -425 rmoveto
          -107 callsubr
          -554 329 -87 callsubr
          -100 -1100 -102 callsubr
        </CharString>
        <CharString name="glyph00272">
          -101 callsubr
          -4 callsubr
          -125 -330 rmoveto
          -103 callsubr
          -529 109 -87 callsubr
          -100 -1100 -102 callsubr
        </CharString>
        <CharString name="glyph00273">
          -101 callsubr
          6 callsubr
          550 -30 rmoveto
          -103 callsubr
          50 20 -95 callsubr
          -579 79 -87 callsubr
          -100 -1100 -102 callsubr
        </CharString>
        <CharString name="glyph00274">
          -101 callsubr
          6 callsubr
          675 -250 rmoveto
          -107 callsubr
          25 240 -95 callsubr
          -579 79 -87 callsubr
          -100 -1100 -102 callsubr
        </CharString>
        <CharString name="glyph00275">
          -101 callsubr
          -6 callsubr
          -250 -71 callsubr
          -25 150 -94 callsubr
          -605 -400 -104 callsubr
        </CharString>
        <CharString name="glyph00276">
          -101 callsubr
          -8 callsubr
          525 -400 rmoveto
          -107 callsubr
          -605 150 -104 callsubr
        </CharString>
        <CharString name="glyph00277">
          -101 callsubr
          89 callsubr
          -480 -275 -104 callsubr
        </CharString>
        <CharString name="glyph00278">
          -101 callsubr
          -8 callsubr
          400 -180 rmoveto
          -103 callsubr
          -580 -70 -104 callsubr
        </CharString>
        <CharString name="glyph00279">
          -101 callsubr
          -6 callsubr
          -160 -95 callsubr
          -630 -100 -104 callsubr
        </CharString>
        <CharString name="glyph00280">
          -101 callsubr
          -11 callsubr
          -550 vmoveto
          -107 callsubr
          -605 150 -104 callsubr
        </CharString>
        <CharString name="glyph00281">
          -101 callsubr
          -10 callsubr
          -205 vmoveto
          -103 callsubr
          -580 -70 -104 callsubr
        </CharString>
        <CharString name="glyph00282">
          -101 callsubr
          -10 callsubr
          125 -425 rmoveto
          -107 callsubr
          -605 150 -104 callsubr
        </CharString>
        <CharString name="glyph00283">
          -101 callsubr
          -11 callsubr
          -125 -330 rmoveto
          -103 callsubr
          -580 -70 -104 callsubr
        </CharString>
        <CharString name="glyph00284">
          -101 callsubr
          -9 callsubr
          550 -30 rmoveto
          -103 callsubr
          50 20 -95 callsubr
          -630 -100 -104 callsubr
        </CharString>
        <CharString name="glyph00285">
          -101 callsubr
          -9 callsubr
          675 -250 rmoveto
          -107 callsubr
          25 240 -95 callsubr
          -630 -100 -104 callsubr
        </CharString>
        <CharString name="glyph00286">
          -99 callsubr
          140 hlineto
          285 285 -62 78 rlineto
          -421 -413 -44 callsubr
          -300 35 -86 callsubr
        </CharString>
        <CharString name="glyph00287">
          -99 callsubr
          16 callsubr
          525 -400 rmoveto
          -107 callsubr
          -300 585 -86 callsubr
        </CharString>
        <CharString name="glyph00288">
          -99 callsubr
          140 hlineto
          285 285 -62 78 rlineto
          -421 -413 -43 callsubr
          -175 160 -86 callsubr
        </CharString>
        <CharString name="glyph00289">
          -99 callsubr
          16 callsubr
          400 -180 rmoveto
          -103 callsubr
          -275 365 -86 callsubr
        </CharString>
        <CharString name="glyph00290">
          -99 callsubr
          158 callsubr
          -160 -95 callsubr
          -325 335 -86 callsubr
        </CharString>
        <CharString name="glyph00291">
          -99 callsubr
          86 callsubr
        </CharString>
        <CharString name="glyph00292">
          -99 callsubr
          11 callsubr
          -205 vmoveto
          -103 callsubr
          -275 365 -86 callsubr
        </CharString>
        <CharString name="glyph00293">
          -99 callsubr
          11 callsubr
          125 -425 rmoveto
          -107 callsubr
          -300 585 -86 callsubr
        </CharString>
        <CharString name="glyph00294">
          -99 callsubr
          87 callsubr
        </CharString>
        <CharString name="glyph00295">
          -99 callsubr
          95 callsubr
        </CharString>
        <CharString name="glyph00296">
          -99 callsubr
          90 callsubr
        </CharString>
        <CharString name="glyph00297">
          -8 100 -44 callsubr
          -625 -250 -88 callsubr
        </CharString>
        <CharString name="glyph00298">
          -8 100 rmoveto
          -32 callsubr
          525 -400 rmoveto
          -107 callsubr
          -625 300 -88 callsubr
        </CharString>
        <CharString name="glyph00299">
          -8 100 -43 callsubr
          -500 -125 -88 callsubr
        </CharString>
        <CharString name="glyph00300">
          -8 100 rmoveto
          -32 callsubr
          400 -180 rmoveto
          -103 callsubr
          -600 80 -88 callsubr
        </CharString>
        <CharString name="glyph00301">
          -8 100 rmoveto
          -19 callsubr
          -160 -95 callsubr
          -650 50 -88 callsubr
        </CharString>
        <CharString name="glyph00302">
          -8 100 -22 callsubr
          -550 vmoveto
          -107 callsubr
          -625 300 -88 callsubr
        </CharString>
        <CharString name="glyph00303">
          -8 100 rmoveto
          -33 callsubr
          -205 vmoveto
          -103 callsubr
          -600 80 -88 callsubr
        </CharString>
        <CharString name="glyph00304">
          -8 100 rmoveto
          -33 callsubr
          125 -425 rmoveto
          -107 callsubr
          -625 300 -88 callsubr
        </CharString>
        <CharString name="glyph00305">
          -8 100 -22 callsubr
          -125 -330 rmoveto
          -103 callsubr
          -600 80 -88 callsubr
        </CharString>
        <CharString name="glyph00306">
          -8 100 rmoveto
          4 callsubr
          550 -30 rmoveto
          -103 callsubr
          50 20 -95 callsubr
          -650 50 -88 callsubr
        </CharString>
        <CharString name="glyph00307">
          -8 100 rmoveto
          85 callsubr
        </CharString>
        <CharString name="glyph00308">
          -99 callsubr
          141 hlineto
          422 422 -103 39 rlineto
          -6 -72 rmoveto
          109 33 -321 321 -71 -70 rlineto
          -229 -723 -44 callsubr
          -369 479 -85 callsubr
        </CharString>
        <CharString name="glyph00309">
          -99 callsubr
          102 callsubr
        </CharString>
        <CharString name="glyph00310">
          -99 callsubr
          141 hlineto
          422 422 -103 39 rlineto
          -6 -72 rmoveto
          109 33 -321 321 -71 -70 rlineto
          -229 -723 -43 callsubr
          -244 604 -85 callsubr
        </CharString>
        <CharString name="glyph00311">
          -99 callsubr
          43 callsubr
          400 -180 rmoveto
          -103 callsubr
          -344 809 -85 callsubr
        </CharString>
        <CharString name="glyph00312">
          -99 callsubr
          108 callsubr
          -160 -95 callsubr
          -394 779 -85 callsubr
        </CharString>
        <CharString name="glyph00313">
          -99 callsubr
          83 callsubr
        </CharString>
        <CharString name="glyph00314">
          -99 callsubr
          -2 callsubr
          -205 vmoveto
          -103 callsubr
          -344 809 -85 callsubr
        </CharString>
        <CharString name="glyph00315">
          -99 callsubr
          -2 callsubr
          125 -425 rmoveto
          -107 callsubr
          -369 1029 -85 callsubr
        </CharString>
        <CharString name="glyph00316">
          -99 callsubr
          141 hlineto
          422 422 -103 39 rlineto
          -6 -72 rmoveto
          109 33 -321 321 -71 -70 rlineto
          -229 -723 -22 callsubr
          -125 -330 rmoveto
          -103 callsubr
          -344 809 -85 callsubr
        </CharString>
        <CharString name="glyph00317">
          -99 callsubr
          92 callsubr
        </CharString>
        <CharString name="glyph00318">
          -99 callsubr
          88 callsubr
        </CharString>
        <CharString name="glyph00319">
          -99 callsubr
          -84 callsubr
          -58 -150 -44 callsubr
          -554 -221 -87 callsubr
        </CharString>
        <CharString name="glyph00320">
          -99 callsubr
          80 callsubr
        </CharString>
        <CharString name="glyph00321">
          -99 callsubr
          -84 callsubr
          -58 -150 -43 callsubr
          -429 -96 -87 callsubr
        </CharString>
        <CharString name="glyph00322">
          -99 callsubr
          82 callsubr
        </CharString>
        <CharString name="glyph00323">
          -99 callsubr
          133 callsubr
          -160 -95 callsubr
          -579 79 -87 callsubr
        </CharString>
        <CharString name="glyph00324">
          -99 callsubr
          -4 callsubr
          -550 vmoveto
          -107 callsubr
          -554 329 -87 callsubr
        </CharString>
        <CharString name="glyph00325">
          -99 callsubr
          -3 callsubr
          -205 vmoveto
          -103 callsubr
          -529 109 -87 callsubr
        </CharString>
        <CharString name="glyph00326">
          -99 callsubr
          -3 callsubr
          125 -425 rmoveto
          -107 callsubr
          -554 329 -87 callsubr
        </CharString>
        <CharString name="glyph00327">
          -99 callsubr
          -4 callsubr
          -125 -330 rmoveto
          -103 callsubr
          -529 109 -87 callsubr
        </CharString>
        <CharString name="glyph00328">
          -99 callsubr
          6 callsubr
          550 -30 rmoveto
          -103 callsubr
          50 20 -95 callsubr
          -579 79 -87 callsubr
        </CharString>
        <CharString name="glyph00329">
          -99 callsubr
          6 callsubr
          675 -250 rmoveto
          -107 callsubr
          25 240 -95 callsubr
          -579 79 -87 callsubr
        </CharString>
        <CharString name="glyph00330">
          -99 callsubr
          -6 callsubr
          -250 -71 callsubr
          -25 150 -94 callsubr
        </CharString>
        <CharString name="glyph00331">
          -99 callsubr
          -8 callsubr
          525 -400 rmoveto
          -107 callsubr
        </CharString>
        <CharString name="glyph00332">
          -99 callsubr
          89 callsubr
        </CharString>
        <CharString name="glyph00333">
          -99 callsubr
          -8 callsubr
          400 -180 rmoveto
          -103 callsubr
        </CharString>
        <CharString name="glyph00334">
          -99 callsubr
          -6 callsubr
          -160 -95 callsubr
        </CharString>
        <CharString name="glyph00335">
          -99 callsubr
          -11 callsubr
          -550 vmoveto
          -107 callsubr
        </CharString>
        <CharString name="glyph00336">
          -99 callsubr
          -10 callsubr
          -205 vmoveto
          -103 callsubr
        </CharString>
        <CharString name="glyph00337">
          -99 callsubr
          -10 callsubr
          125 -425 rmoveto
          -107 callsubr
        </CharString>
        <CharString name="glyph00338">
          -99 callsubr
          -11 callsubr
          -125 -330 rmoveto
          -103 callsubr
        </CharString>
        <CharString name="glyph00339">
          -99 callsubr
          -9 callsubr
          550 -30 rmoveto
          -103 callsubr
          50 20 -95 callsubr
        </CharString>
        <CharString name="glyph00340">
          -99 callsubr
          -9 callsubr
          675 -250 rmoveto
          -107 callsubr
          25 240 -95 callsubr
        </CharString>
        <CharString name="glyph00342">
          160 callsubr
          700 -59 callsubr
          -180 -1130 -102 callsubr
        </CharString>
        <CharString name="glyph00343">
          160 callsubr
          -50 rmoveto
          -51 callsubr
          -130 -750 200 1 blend
          -104 callsubr
        </CharString>
        <CharString name="glyph00344">
          150 hmoveto
          -84 callsubr
          300 -100 rmoveto
          -79 callsubr
          -100 -880 -40 callsubr
          -170 -100 -104 callsubr
        </CharString>
        <CharString name="glyph00345">
          150 hmoveto
          -84 callsubr
          300 650 -59 callsubr
          -100 -880 -40 callsubr
          -170 -100 -104 callsubr
        </CharString>
        <CharString name="glyph00346">
          150 hmoveto
          -84 callsubr
          300 -100 rmoveto
          -51 callsubr
          -50 -500 200 17 callsubr
          -170 -100 -104 callsubr
        </CharString>
        <CharString name="glyph00347">
          19 callsubr
          -79 callsubr
          -25 -1130 -106 callsubr
          rmoveto
          -107 callsubr
          -155 150 -104 callsubr
        </CharString>
        <CharString name="glyph00348">
          -47 callsubr
          300 650 -59 callsubr
          -25 -1130 -106 callsubr
          rmoveto
          -107 callsubr
          -155 150 -104 callsubr
        </CharString>
        <CharString name="glyph00349">
          19 callsubr
          -51 callsubr
          25 -750 200 1 blend
          rmoveto
          -107 callsubr
          -155 150 -104 callsubr
        </CharString>
        <CharString name="glyph00350">
          19 callsubr
          -79 callsubr
          -150 -910 -106 callsubr
          rmoveto
          -103 callsubr
          -130 -70 -104 callsubr
        </CharString>
        <CharString name="glyph00351">
          -47 callsubr
          300 650 -59 callsubr
          -150 -910 -106 callsubr
          rmoveto
          -103 callsubr
          -130 -70 -104 callsubr
        </CharString>
        <CharString name="glyph00352">
          19 callsubr
          -51 callsubr
          -100 -530 200 1 blend
          rmoveto
          -103 callsubr
          -130 -70 -104 callsubr
        </CharString>
        <CharString name="glyph00353">
          150 hmoveto
          -79 callsubr
          -100 -880 -40 callsubr
        </CharString>
        <CharString name="glyph00354">
          150 750 -59 callsubr
          -100 -880 -40 callsubr
        </CharString>
        <CharString name="glyph00355">
          150 hmoveto
          -51 callsubr
          -50 -500 200 17 callsubr
        </CharString>
        <CharString name="glyph00356">
          50 151 callsubr
        </CharString>
        <CharString name="glyph00357">
          35 callsubr
          -100 -1100 -40 callsubr
        </CharString>
        <CharString name="glyph00358">
          39 callsubr
          -100 -700 280 17 callsubr
        </CharString>
        <CharString name="glyph00359">
          150 hmoveto
          -79 callsubr
          -25 -1130 -106 callsubr
          rmoveto
          -107 callsubr
        </CharString>
        <CharString name="glyph00360">
          150 750 -59 callsubr
          -25 -1130 -106 callsubr
          rmoveto
          -107 callsubr
        </CharString>
        <CharString name="glyph00361">
          150 hmoveto
          -51 callsubr
          25 -750 200 1 blend
          rmoveto
          -107 callsubr
        </CharString>
        <CharString name="glyph00362">
          50 hmoveto
          100 1000 -105 callsubr
          -25 -1350 -106 callsubr
          rmoveto
          -107 callsubr
        </CharString>
        <CharString name="glyph00363">
          35 callsubr
          -25 -1350 -106 callsubr
          rmoveto
          -107 callsubr
        </CharString>
        <CharString name="glyph00364">
          39 callsubr
          -25 -950 280 1 blend
          rmoveto
          -107 callsubr
        </CharString>
        <CharString name="glyph00365">
          150 hmoveto
          -79 callsubr
          -150 -910 -106 callsubr
          rmoveto
          -103 callsubr
        </CharString>
        <CharString name="glyph00366">
          150 750 -59 callsubr
          -150 -910 -106 callsubr
          rmoveto
          -103 callsubr
        </CharString>
        <CharString name="glyph00367">
          150 hmoveto
          -51 callsubr
          -100 -530 200 1 blend
          rmoveto
          -103 callsubr
        </CharString>
        <CharString name="glyph00368">
          50 hmoveto
          100 1000 -105 callsubr
          -150 -1130 -106 callsubr
          rmoveto
          -103 callsubr
        </CharString>
        <CharString name="glyph00369">
          35 callsubr
          -150 -1130 -106 callsubr
          rmoveto
          -103 callsubr
        </CharString>
        <CharString name="glyph00370">
          39 callsubr
          -150 -730 280 1 blend
          rmoveto
          -103 callsubr
        </CharString>
        <CharString name="glyph00371">
          150 150 150 callsubr
        </CharString>
        <CharString name="glyph00372">
          50 150 153 callsubr
        </CharString>
        <CharString name="glyph00373">
          218 callsubr
          -100 150 callsubr
        </CharString>
        <CharString name="glyph00374">
          250 vmoveto
          -100 230 100 vlineto
          -20 -100 153 callsubr
        </CharString>
        <CharString name="glyph00375">
          169 callsubr
          344 215 callsubr
          100 vlineto
          -150 100 rmoveto
          83 67 67 83 hvcurveto
          250 -100 -250 156 callsubr
          rmoveto
          220 vlineto
          -30 -68 -55 -52 -65 -30 rrcurveto
          3 47 -1 -49 hvcurveto
          -20 vlineto
        </CharString>
        <CharString name="glyph00376">
          169 callsubr
          450 rmoveto
          200 -100 -100 -50 vlineto
          25 callsubr
          50 -100 100 200 -150 hlineto
          64 callsubr
          hvcurveto
          150 380 -41 callsubr
        </CharString>
        <CharString name="glyph00378">
          119 callsubr
        </CharString>
        <CharString name="glyph00379">
          99 callsubr
        </CharString>
        <CharString name="glyph00380">
          103 callsubr
        </CharString>
        <CharString name="glyph00381">
          -47 callsubr
          -100 vmoveto
          -74 callsubr
          100 -20 -97 callsubr
          -80 -175 -104 callsubr
        </CharString>
        <CharString name="glyph00382">
          -31 -150 rmoveto
          109 22 71 79 hvcurveto
          50 -100 -50 vlineto
          1 -42 0 -92 -101 -1 rrcurveto
          -9 15 31 -6 23 hhcurveto
          181 200 -68 callsubr
        </CharString>
        <CharString name="glyph00383">
          119 callsubr
        </CharString>
        <CharString name="glyph00384">
          99 callsubr
        </CharString>
        <CharString name="glyph00385">
          103 callsubr
        </CharString>
        <CharString name="glyph00386">
          -47 callsubr
          -100 vmoveto
          -74 callsubr
          100 -20 -97 callsubr
          -80 -175 -104 callsubr
        </CharString>
        <CharString name="glyph00387">
          211 callsubr
          -175 140 callsubr
        </CharString>
        <CharString name="glyph00388">
          211 callsubr
          -75 141 callsubr
        </CharString>
        <CharString name="glyph00389">
          115 callsubr
        </CharString>
        <CharString name="glyph00390">
          116 callsubr
        </CharString>
        <CharString name="glyph00391">
          -50 hmoveto
          -74 callsubr
          100 -20 -97 callsubr
        </CharString>
        <CharString name="glyph00392">
          -50 hmoveto
          -74 callsubr
          250 -50 -68 callsubr
        </CharString>
        <CharString name="glyph00393">
          115 callsubr
        </CharString>
        <CharString name="glyph00394">
          116 callsubr
        </CharString>
        <CharString name="glyph00395">
          -50 hmoveto
          -74 callsubr
          100 -20 -97 callsubr
        </CharString>
        <CharString name="glyph00398">
          120 callsubr
        </CharString>
        <CharString name="glyph00399">
          149 callsubr
        </CharString>
        <CharString name="glyph00400">
          142 callsubr
        </CharString>
        <CharString name="glyph00401">
          152 callsubr
        </CharString>
        <CharString name="glyph00402">
          49 callsubr
        </CharString>
        <CharString name="glyph00403">
          120 callsubr
        </CharString>
        <CharString name="glyph00404">
          149 callsubr
        </CharString>
        <CharString name="glyph00405">
          142 callsubr
        </CharString>
        <CharString name="glyph00406">
          152 callsubr
        </CharString>
        <CharString name="glyph00408">
          200 hmoveto
          100 400 -100 hlineto
          -200 -400 rmoveto
          3 callsubr
          250 290 -100 callsubr
        </CharString>
        <CharString name="glyph00409">
          -21 callsubr
          250 -90 rmoveto
          -79 callsubr
        </CharString>
        <CharString name="glyph00410">
          -21 callsubr
          250 660 -59 callsubr
        </CharString>
        <CharString name="glyph00411">
          -21 callsubr
          250 -90 rmoveto
          420 -200 1 blend
          -100 -420 200 1 blend
          vlineto
          100 730 -230 1 blend
          rmoveto
          270 -170 1 blend
          -100 -270 170 1 blend
          vlineto
          100 250 -170 -20 callsubr
          100 -380 200 1 blend
          rmoveto
          200 -80 1 blend
          -100 -100 80 1 blend
          -50 vlineto
          25 callsubr
          50 -100 80 1 blend
          100 200 -80 1 blend
          -150 hlineto
          64 callsubr
          hvcurveto
        </CharString>
        <CharString name="glyph00412">
          411 hmoveto
          115 hlineto
          -228 396 -82 -58 rlineto
          -86 -238 rmoveto
          -100 396 vlineto
          -109 100 rlineto
          -312 -50 rmoveto
          -50 vlineto
          -150 -150 265 150 rlineto
          50 vlineto
          135 183 rmoveto
          -59 98 -191 -331 rlineto
          115 hlineto
          94 278 rmoveto
          -62 83 rlineto
          -105 -30 -77 -88 -115 vvcurveto
          -64 24 -58 40 -45 vhcurveto
          78 53 rlineto
          -32 27 -20 41 46 vvcurveto
          81 74 66 80 3 vhcurveto
          -6 101 181 callsubr
        </CharString>
        <CharString name="glyph00413">
          -50 650 73 callsubr
        </CharString>
        <CharString name="glyph00414">
          -50 hmoveto
          287 100 -287 hlineto
          487 -100 rmoveto
          63 100 -63 hlineto
          -106 48 callsubr
          -221 382 -41 -125 183 -318 12 callsubr
          -51 1076 53 callsubr
          22 8 rmoveto
          5 -64 -73 -49 -66 vvcurveto
          -16 4 -16 10 -18 vhcurveto
          149 -13 rlineto
          6 vlineto
          -34 11 -38 36 -6 41 rrcurveto
          -1 7 0 8 7 46 15 52 38 vvcurveto
          52 -31 10 -19 -4 -3 0 -1 -3 vhcurveto
          -224 -599 rmoveto
          126 16 70 93 129 hhcurveto
          133 52 -100 -124 -79 -18 -88 -39 -80 hvcurveto
          57 -100 rlineto
          71 121 29 124 108 vvcurveto
          162 -87 150 -163 -138 -112 -105 -208 vhcurveto
          13 -523 rmoveto
          115 hlineto
          177 306 -55 105 rlineto
        </CharString>
        <CharString name="glyph00415">
          69 367 84 callsubr
        </CharString>
        <CharString name="glyph00416">
          -50 hmoveto
          75 callsubr
        </CharString>
        <CharString name="glyph00417">
          111 callsubr
        </CharString>
        <CharString name="glyph00418">
          81 callsubr
        </CharString>
        <CharString name="glyph00419">
          78 callsubr
        </CharString>
        <CharString name="glyph00420">
          376 228 rmoveto
          71 70 -117 117 -9 9 0 16 10 10 rlinecurve
          10 10 14 -1 10 -9 11 -10 rcurveline
          71 70 -10 10 -48 48 -80 2 -49 -50 rlinecurve
          -48 -49 0 -79 49 -49 rrcurveto
          164 -9 rmoveto
          118 117 9 9 15 0 10 -10 rlinecurve
          10 -10 0 -15 -9 -9 -11 -12 rcurveline
          70 -70 10 10 49 49 2 78 -50 50 rlinecurve
          -49 49 -79 -1 -49 -49 -116 -116 rcurveline
          176 22 rmoveto
          -70 -71 289 -289 107 34 rlineto
          -305 hlineto
          2 -100 rlineto
          303 100 hlineto
          -836 -29 rmoveto
          141 -1 179 179 -71 71 rlineto
          -320 -320 rmoveto
          569 hlineto
          16 33 -11 39 -34 28 rrcurveto
          -540 hlineto
          338 10 rmoveto
          126 hlineto
          139 139 -71 71 -157 -157 -15 -15 -13 -18 -9 -20 rlinecurve
          -12 -120 rmoveto
          -80 19 73 -60 86 hhcurveto
          100 82 82 101 51 -21 46 -34 33 hvcurveto
          -50 50 -70 -70 52 -52 rlineto
          11 -13 12 -22 -24 vvcurveto
          -45 -37 -37 -45 -30 -27 16 24 -14 vhcurveto
        </CharString>
        <CharString name="glyph00421">
          452 -78 callsubr
          -589 500 73 callsubr
        </CharString>
        <CharString name="glyph00422">
          452 -78 callsubr
          -589 -150 rmoveto
          287 100 -287 hlineto
          487 -100 rmoveto
          63 100 -63 hlineto
          -106 48 callsubr
          -221 382 -41 -125 183 -318 12 callsubr
          -51 1076 53 callsubr
          22 8 rmoveto
          5 -64 -73 -49 -66 vvcurveto
          -16 4 -16 10 -18 vhcurveto
          149 -13 rlineto
          6 vlineto
          -34 11 -38 36 -6 41 rrcurveto
          -1 7 0 8 7 46 15 52 38 vvcurveto
          52 -31 10 -19 -4 -3 0 -1 -3 vhcurveto
          -224 -599 rmoveto
          126 16 70 93 129 hhcurveto
          133 52 -100 -124 -79 -18 -88 -39 -80 hvcurveto
          57 -100 rlineto
          71 121 29 124 108 vvcurveto
          162 -87 150 -163 -138 -112 -105 -208 vhcurveto
          13 -523 rmoveto
          115 hlineto
          177 306 -55 105 rlineto
        </CharString>
        <CharString name="glyph00423">
          452 -78 callsubr
          -470 217 84 callsubr
        </CharString>
        <CharString name="glyph00424">
          452 -78 callsubr
          -589 -150 rmoveto
          75 callsubr
        </CharString>
        <CharString name="glyph00425">
          111 callsubr
        </CharString>
        <CharString name="glyph00426">
          81 callsubr
        </CharString>
        <CharString name="glyph00427">
          78 callsubr
        </CharString>
        <CharString name="glyph00430">
          -50 -113 rmoveto
          -29 41 39 -8 39 hhcurveto
          126 55 106 123 103 -45 56 -80 62 hvcurveto
          -26 -28 -25 -14 -6 vhcurveto
          -48 -17 -35 -47 -54 vvcurveto
          -69 56 -56 69 vhcurveto
          13 hlineto
          -8 -41 -54 -73 -126 1 rrcurveto
          150 238 rmoveto
          23 callsubr
          -14 -11 11 14 vhcurveto
        </CharString>
        <CharString name="glyph00431">
          101 125 rmoveto
          23 callsubr
          -14 -11 11 14 vhcurveto
          -151 -275 rmoveto
          126 hlineto
          77 64 49 69 25 hvcurveto
          12 33 7 37 40 vvcurveto
          103 -55 57 -80 62 vhcurveto
          -26 -28 -25 -14 -6 vhcurveto
          -47 -20 -36 -44 -54 vvcurveto
          -69 56 -56 69 9 9 1 2 9 vhcurveto
          -30 -10 -33 -23 -33 hhcurveto
          -36 -29 21 29 -12 hvcurveto
          -7 -56 -15 -50 -28 -44 rrcurveto
        </CharString>
        <CharString name="glyph00434">
          526 -78 callsubr
          -463 -150 rmoveto
          114 callsubr
        </CharString>
        <CharString name="glyph00435">
          526 -78 callsubr
          -463 -150 rmoveto
          113 callsubr
        </CharString>
        <CharString name="glyph00436">
          626 -78 callsubr
          -262 -150 rmoveto
          7 callsubr
          -27 -474 rmoveto
          -74 callsubr
          476 -100 -64 callsubr
          -456 -100 -104 callsubr
        </CharString>
        <CharString name="glyph00437">
          526 -78 callsubr
          -262 -150 rmoveto
          7 callsubr
          73 -474 rmoveto
          -52 callsubr
          376 -100 -64 callsubr
          -356 -100 -104 callsubr
        </CharString>
        <CharString name="glyph00438">
          526 -78 callsubr
          -463 -150 rmoveto
          130 callsubr
        </CharString>
        <CharString name="glyph00439">
          201 hmoveto
          149 150 hlineto
          -150 -150 rmoveto
          129 callsubr
        </CharString>
        <CharString name="glyph00440">
          201 hmoveto
          149 150 hlineto
          -150 -150 rmoveto
          135 callsubr
        </CharString>
        <CharString name="glyph00441">
          324 -78 callsubr
          -87 -150 rmoveto
          5 callsubr
          180 -280 rmoveto
          67 50 -162 280 -80 -59 127 -221 -56 -40 -33 -51 -13 -59 rlinecurve
          1042 hlineto
          58 100 rlineto
          -826 50 -64 callsubr
        </CharString>
        <CharString name="glyph00442">
          324 -78 callsubr
          -87 -150 rmoveto
          5 callsubr
          276 -280 rmoveto
          -191 330 -80 -59 213 -371 rlineto
          854 hlineto
          58 100 rlineto
          -826 50 -64 callsubr
        </CharString>
        <CharString name="glyph00443">
          412 -78 callsubr
          -87 -150 rmoveto
          -12 callsubr
          -152 554 rmoveto
          -58 callsubr
        </CharString>
        <CharString name="glyph00444">
          412 -78 callsubr
          -87 -150 rmoveto
          -12 callsubr
          -52 554 -41 callsubr
        </CharString>
        <CharString name="glyph00445">
          150 hmoveto
          112 callsubr
        </CharString>
        <CharString name="glyph00446">
          150 hmoveto
          114 callsubr
        </CharString>
        <CharString name="glyph00447">
          150 hmoveto
          113 callsubr
        </CharString>
        <CharString name="glyph00448">
          451 hmoveto
          7 callsubr
          -27 -474 rmoveto
          -74 callsubr
          476 -100 -64 callsubr
          -456 -100 -104 callsubr
        </CharString>
        <CharString name="glyph00449">
          351 hmoveto
          7 callsubr
          73 -474 rmoveto
          -52 callsubr
          376 -100 -64 callsubr
          -356 -100 -104 callsubr
        </CharString>
        <CharString name="glyph00450">
          150 hmoveto
          130 callsubr
        </CharString>
        <CharString name="glyph00451">
          200 hmoveto
          129 callsubr
        </CharString>
        <CharString name="glyph00452">
          200 hmoveto
          135 callsubr
        </CharString>
        <CharString name="glyph00453">
          324 hmoveto
          5 callsubr
          180 -280 rmoveto
          67 50 -162 280 -80 -59 127 -221 -56 -40 -33 -51 -13 -59 rlinecurve
          1042 hlineto
          58 100 rlineto
          -826 50 -64 callsubr
        </CharString>
        <CharString name="glyph00454">
          324 hmoveto
          5 callsubr
          276 -280 rmoveto
          -191 330 -80 -59 213 -371 rlineto
          854 hlineto
          58 100 rlineto
          -826 50 -64 callsubr
        </CharString>
        <CharString name="glyph00455">
          412 hmoveto
          -12 callsubr
          -52 554 -41 callsubr
        </CharString>
        <CharString name="glyph00456">
          412 hmoveto
          -12 callsubr
          -152 554 rmoveto
          -58 callsubr
        </CharString>
        <CharString name="glyph00461">
          500 hmoveto
          100 1000 104 callsubr
        </CharString>
        <CharString name="glyph00462">
          -69 callsubr
          -100 -900 -96 callsubr
          86 584 -83 callsubr
          -274 -316 -96 callsubr
          160 880 -82 callsubr
        </CharString>
        <CharString name="glyph00463">
          34 callsubr
        </CharString>
        <CharString name="glyph00464">
          -69 callsubr
          -100 -900 -96 callsubr
          86 584 -83 callsubr
          -274 -316 -96 callsubr
          160 880 -82 callsubr
          230 -80 callsubr
        </CharString>
        <CharString name="glyph00465">
          -69 callsubr
          300 -900 -37 callsubr
          -400 100 -96 callsubr
          86 584 -83 callsubr
          -274 -316 -96 callsubr
          160 880 -82 callsubr
          280 -80 callsubr
        </CharString>
        <CharString name="glyph00466">
          -69 callsubr
          350 -900 -55 callsubr
          -450 100 -96 callsubr
          86 584 -83 callsubr
          -274 -316 42 callsubr
        </CharString>
        <CharString name="glyph00467">
          -69 callsubr
          -100 -900 -96 callsubr
          86 584 -83 callsubr
          -274 -316 -96 callsubr
          160 880 -82 callsubr
          150 -960 -49 callsubr
          -20 -20 -89 callsubr
        </CharString>
        <CharString name="glyph00468">
          -69 callsubr
          250 -950 21 callsubr
          -350 100 -96 callsubr
          86 584 -83 callsubr
          -274 -316 -96 callsubr
          160 880 -82 callsubr
          230 -80 callsubr
        </CharString>
        <CharString name="glyph00469">
          34 callsubr
          230 -80 callsubr
        </CharString>
        <CharString name="glyph00470">
          -69 callsubr
          300 -900 -37 callsubr
          -400 100 36 callsubr
          280 -80 callsubr
        </CharString>
        <CharString name="glyph00471">
          -69 callsubr
          350 -900 -55 callsubr
          -450 100 -96 callsubr
          86 509 -1 callsubr
          -274 -391 42 callsubr
        </CharString>
        <CharString name="glyph00472">
          34 callsubr
          150 -960 -49 callsubr
          -20 -20 -89 callsubr
        </CharString>
        <CharString name="glyph00473">
          -69 callsubr
          250 -950 21 callsubr
          -350 100 36 callsubr
          230 -80 callsubr
        </CharString>
        <CharString name="glyph00474">
          200 850 rmoveto
          -25 callsubr
          -150 -1000 rmoveto
          100 300 -100 hlineto
          150 -300 rmoveto
          100 300 -100 hlineto
          -150 550 rmoveto
          -25 callsubr
          350 -900 -55 callsubr
          -450 100 -96 callsubr
          80 263 rmoveto
          -100 -140 100 hlineto
          704 vmoveto
          -100 -140 100 hlineto
          -71 -495 rmoveto
          71 71 -99 99 -71 -71 rlineto
          -24 -10 rmoveto
          194 194 -99 99 -71 -71 29 -28 -125 -124 -10 -9 -15 -1 -10 10 rlinecurve
          -10 10 1 16 9 9 11 11 rcurveline
          -71 71 -10 -10 -49 -49 -1 -79 50 -49 rlinecurve
          49 -48 79 -1 49 49 rrcurveto
          -177 211 rmoveto
          116 -116 71 71 -117 117 -9 9 0 16 9 10 rlinecurve
          10 11 15 -1 10 -10 11 -11 rcurveline
          71 71 -10 10 -49 49 -79 1 -49 -50 rlinecurve
          -48 -49 -1 -79 49 -49 rrcurveto
          300 266 rmoveto
          -205 -205 71 -71 205 205 rlineto
          50 hmoveto
          100 140 -100 hlineto
          -704 vmoveto
          100 140 -100 hlineto
          71 495 rmoveto
          -71 -71 99 -99 71 71 rlineto
          24 10 rmoveto
          -194 -194 99 -99 71 71 -29 28 125 124 10 9 15 1 10 -10 rlinecurve
          10 -10 -1 -16 -9 -9 -11 -11 rcurveline
          71 -71 10 10 49 49 1 79 -50 49 rlinecurve
          -49 48 -79 1 -49 -49 rrcurveto
          177 -211 rmoveto
          -116 116 -71 -71 117 -117 9 -9 0 -16 -9 -10 rlinecurve
          -10 -11 -15 1 -10 10 -11 11 rcurveline
          -71 -71 10 -10 49 -49 79 -1 49 50 rlinecurve
          48 49 1 79 -49 49 rrcurveto
          -300 -266 rmoveto
          205 205 -71 71 -205 -205 rlineto
          -280 -263 42 callsubr
        </CharString>
        <CharString name="glyph00475">
          147 callsubr
          434 -83 callsubr
          6 564 -82 callsubr
        </CharString>
        <CharString name="glyph00476">
          147 callsubr
          359 -1 callsubr
          6 489 -82 callsubr
        </CharString>
        <CharString name="glyph00477">
          -50 callsubr
          -100 -750 -27 callsubr
          289 -83 callsubr
          6 564 -82 callsubr
          230 -80 callsubr
        </CharString>
        <CharString name="glyph00478">
          -50 callsubr
          300 -900 -37 callsubr
          -400 250 -27 callsubr
          289 -83 callsubr
          6 564 -82 callsubr
          280 -80 callsubr
        </CharString>
        <CharString name="glyph00479">
          -50 callsubr
          350 -900 -55 callsubr
          -450 250 -27 callsubr
          289 -83 callsubr
          6 564 -82 callsubr
          330 -80 callsubr
        </CharString>
        <CharString name="glyph00480">
          -50 callsubr
          -100 -750 -27 callsubr
          289 -83 callsubr
          6 564 -82 callsubr
          150 -960 -49 callsubr
          -20 -20 -89 callsubr
        </CharString>
        <CharString name="glyph00481">
          -14 callsubr
          -1000 vmoveto
          136 callsubr
          250 -27 callsubr
          289 -83 callsubr
          6 564 -82 callsubr
          230 -80 callsubr
        </CharString>
        <CharString name="glyph00482">
          -50 callsubr
          -100 -750 -23 callsubr
          230 -80 callsubr
        </CharString>
        <CharString name="glyph00483">
          -50 callsubr
          300 -900 -37 callsubr
          -400 250 -23 callsubr
          280 -80 callsubr
        </CharString>
        <CharString name="glyph00484">
          -50 callsubr
          350 -900 -55 callsubr
          -450 250 -23 callsubr
          330 -80 callsubr
        </CharString>
        <CharString name="glyph00485">
          -50 callsubr
          -100 -750 -23 callsubr
          150 -960 -49 callsubr
          -20 -20 -89 callsubr
        </CharString>
        <CharString name="glyph00486">
          -14 callsubr
          -1000 vmoveto
          136 callsubr
          250 -23 callsubr
          230 -80 callsubr
        </CharString>
        <CharString name="glyph00487">
          165 callsubr
          350 -100 hlineto
          -150 -300 194 callsubr
          350 -100 -350 vlineto
          -464 790 63 callsubr
          -50 -1000 rmoveto
          22 callsubr
          1078 330 207 callsubr
          350 -690 -55 callsubr
          -200 790 rmoveto
          100 210 -100 hlineto
          -50 -1000 rmoveto
          22 callsubr
          -1278 -360 rmoveto
          -100 200 100 vlineto
          312 674 rmoveto
          205 -205 71 71 -134 134 35 35 35 -35 -28 -28 71 -71 99 99 -177 177 rlineto
          -212 -566 rmoveto
          205 205 -71 71 -134 -134 -35 35 35 35 28 -28 217 callsubr
          778 hmoveto
          -177 177 -205 -205 71 -71 134 134 35 -35 -35 -35 -28 28 -71 -71 99 -99 rlineto
          -87 17 202 callsubr
          -60 100 vlineto
          -203 149 rmoveto
          -47 -47 rlineto
          -102 100 60 vlineto
          18 18 rlineto
          -576 381 -83 callsubr
          1090 268 -83 callsubr
          -169 -641 93 callsubr
          250 890 -45 callsubr
          1308 -1200 rmoveto
          170 hlineto
          -58 23 -42 62 65 vvcurveto
          0 0 -50 -50 vhcurveto
          -20 hlineto
          -230 880 -45 callsubr
        </CharString>
        <CharString name="glyph00488">
          165 callsubr
          250 -100 hlineto
          -150 -200 194 callsubr
          250 -100 -250 vlineto
          -464 hmoveto
          22 callsubr
          1328 -360 -55 callsubr
          -250 hmoveto
          22 callsubr
          -1278 -360 rmoveto
          -100 200 100 vlineto
          1028 690 63 callsubr
          -1178 -210 63 callsubr
          355 -544 rmoveto
          71 71 -134 134 35 36 28 -29 217 callsubr
          389 389 rmoveto
          -177 -176 205 -206 71 71 -134 135 35 35 35 -35 -28 -29 71 -70 99 99 rlineto
          -389 -601 rmoveto
          205 205 -71 70 -134 -134 -35 35 28 29 -71 70 -99 -99 rlineto
          311 311 rmoveto
          -127 -127 71 -71 127 128 rlineto
          -92 -106 rmoveto
          127 -128 71 71 -127 127 rlineto
          240 184 rmoveto
          -205 -205 71 -71 134 135 35 -36 -28 -28 71 -71 99 99 rlineto
          -205 -7 rmoveto
          -71 -70 134 -135 -35 -35 -28 28 -71 -70 99 -99 177 176 rlineto
          -311 -99 rmoveto
          127 128 -71 70 -127 -127 rlineto
          118 -132 202 callsubr
          -47 100 vlineto
          -203 136 rmoveto
          -47 -47 rlineto
          -89 100 47 vlineto
          18 18 rlineto
          421 -415 93 callsubr
          1384 669 -83 callsubr
          -1166 268 -83 callsubr
          1314 -491 -89 callsubr
          -230 880 -45 callsubr
          -1178 -220 -45 callsubr
        </CharString>
        <CharString name="glyph00489">
          350 hmoveto
          100 1000 -105 callsubr
          -350 -1200 -106 callsubr
          rmoveto
          60 100 -10 hlineto
          -41 -20 -36 -30 -23 vhcurveto
          200 50 -68 callsubr
          250 -90 rmoveto
          -79 callsubr
        </CharString>
        <CharString name="glyph00490">
          150 91 callsubr
        </CharString>
        <CharString name="glyph00491">
          500 hmoveto
          -93 callsubr
          25 150 -94 callsubr
          -675 -200 rmoveto
          100 800 104 callsubr
        </CharString>
        <CharString name="glyph00492">
          200 91 callsubr
          -100 -880 -40 callsubr
        </CharString>
        <CharString name="glyph00493">
          79 callsubr
        </CharString>
        <CharString name="glyph00494">
          74 callsubr
        </CharString>
        <CharString name="glyph00495">
          72 callsubr
        </CharString>
        <CharString name="glyph00496">
          77 callsubr
        </CharString>
        <CharString name="glyph00497">
          79 callsubr
        </CharString>
        <CharString name="glyph00498">
          74 callsubr
        </CharString>
        <CharString name="glyph00499">
          72 callsubr
        </CharString>
        <CharString name="glyph00500">
          77 callsubr
        </CharString>
        <CharString name="glyph00501">
          -69 callsubr
          -100 -900 -96 callsubr
          86 584 -83 callsubr
          -90 -316 -96 callsubr
          -24 880 -82 callsubr
        </CharString>
        <CharString name="glyph00502">
          350 151 callsubr
          -340 -100 rmoveto
          3 callsubr
          250 -90 rmoveto
          -79 callsubr
        </CharString>
        <CharString name="glyph00504">
        </CharString>
        <CharString name="glyph00505">
          50 hmoveto
          -28 callsubr
        </CharString>
        <CharString name="glyph00506">
          50 hmoveto
          -28 callsubr
        </CharString>
        <CharString name="glyph00507">
          50 -150 -76 callsubr
          150 vmoveto
          28 22 22 28 28 -22 22 -28 -28 -22 -22 -28 -28 22 -22 28 hvcurveto
        </CharString>
        <CharString name="glyph00508">
          50 hmoveto
          14 callsubr
        </CharString>
        <CharString name="glyph00509">
          50 hmoveto
          14 callsubr
        </CharString>
        <CharString name="glyph00510">
          50 hmoveto
          14 callsubr
          -75 133 -76 callsubr
        </CharString>
        <CharString name="space">
        </CharString>
        <CharString name="uni0621">
          331 215 -46 -35 2 blend
          rmoveto
          50 callsubr
          1 -7 2 -3 6 177 callsubr
          -50 -100 388 8 16 -64 3 blend
          hlineto
          -58 23 -42 62 65 9 192 callsubr
          5 4 5 5 blend
          hhcurveto
          -41 -34 34 41 41 34 34 41 26 24 -14 -21 13 7 6 -6 -7 -7 -6 -5 -7 -4 -4 2 4 -2 13 blend
          hvcurveto
        </CharString>
        <CharString name="uni0623">
          0 vmoveto
          100 1000 -105 callsubr
          -42 -62 97 callsubr
        </CharString>
        <CharString name="uni0624">
          127 callsubr
          153 282 -5 callsubr
        </CharString>
        <CharString name="uni0625">
          0 vmoveto
          100 1000 -105 callsubr
          78 -1261 97 callsubr
        </CharString>
        <CharString name="uni0626">
          -7 callsubr
          228 272 -5 callsubr
        </CharString>
        <CharString name="uni0627">
          0 vmoveto
          100 1000 -105 callsubr
        </CharString>
        <CharString name="uni0628">
          9 callsubr
          -250 -380 -76 callsubr
        </CharString>
        <CharString name="uni0629">
          -21 callsubr
          50 360 -31 callsubr
        </CharString>
        <CharString name="uni062A">
          9 callsubr
          -325 220 -31 callsubr
        </CharString>
        <CharString name="uni062B">
          9 callsubr
          -325 220 -31 callsubr
          -75 133 -76 callsubr
        </CharString>
        <CharString name="uni062C">
          37 callsubr
          220 -100 -76 callsubr
        </CharString>
        <CharString name="uni062D">
          37 callsubr
        </CharString>
        <CharString name="uni062E">
          37 callsubr
          -230 550 -76 callsubr
        </CharString>
        <CharString name="uni062F">
          40 callsubr
        </CharString>
        <CharString name="uni0630">
          40 callsubr
          400 -100 -76 callsubr
        </CharString>
        <CharString name="uni0631">
          45 callsubr
        </CharString>
        <CharString name="uni0632">
          45 callsubr
          50 220 -76 callsubr
        </CharString>
        <CharString name="uni0633">
          105 callsubr
        </CharString>
        <CharString name="uni0634">
          105 callsubr
          125 320 -31 callsubr
          -75 133 -76 callsubr
        </CharString>
        <CharString name="uni0635">
          107 callsubr
        </CharString>
        <CharString name="uni0636">
          107 callsubr
          400 220 -76 callsubr
        </CharString>
        <CharString name="uni0637">
          -92 callsubr
          -100 vmoveto
          -93 callsubr
          25 150 -94 callsubr
          -675 -400 rmoveto
          100 1000 -105 callsubr
          20 -1200 -102 callsubr
        </CharString>
        <CharString name="uni0638">
          -92 callsubr
          -100 vmoveto
          -93 callsubr
          25 150 -94 callsubr
          -675 -400 rmoveto
          100 1000 -105 callsubr
          20 -1200 -102 callsubr
          550 450 -76 callsubr
        </CharString>
        <CharString name="uni0639">
          96 callsubr
        </CharString>
        <CharString name="uni063A">
          96 callsubr
          -80 450 -76 callsubr
        </CharString>
        <CharString name="uni0640">
          -50 100 -96 callsubr
        </CharString>
        <CharString name="uni0641">
          150 29 callsubr
          300 -100 rmoveto
          -74 callsubr
          250 -100 -38 callsubr
          0 vmoveto
          0 callsubr
          -380 -240 -104 callsubr
          675 500 rmoveto
          -28 callsubr
        </CharString>
        <CharString name="uni0642">
          128 callsubr
          50 260 -31 callsubr
        </CharString>
        <CharString name="uni0643">
          170 hmoveto
          199 callsubr
          150 150 rmoveto
          140 hlineto
          285 285 -62 78 rlineto
          -421 -413 -44 callsubr
          -300 35 -86 callsubr
        </CharString>
        <CharString name="uni0644">
          150 -150 126 callsubr
        </CharString>
        <CharString name="uni0645">
          -31 -150 rmoveto
          109 22 71 79 hvcurveto
          50 -100 -50 vlineto
          1 -42 0 -92 -101 -1 rrcurveto
          -9 15 31 -6 23 hhcurveto
          181 200 -68 callsubr
        </CharString>
        <CharString name="uni0646">
          49 callsubr
          -51 100 -76 callsubr
        </CharString>
        <CharString name="uni0647">
          -21 callsubr
        </CharString>
        <CharString name="uni0648">
          127 callsubr
        </CharString>
        <CharString name="uni0649">
          -7 callsubr
        </CharString>
        <CharString name="uni064A">
          -7 callsubr
          225 -150 -31 callsubr
        </CharString>
        <CharString name="uni0654">
          93 72 -5 callsubr
        </CharString>
        <CharString name="uni0655">
          93 72 -5 callsubr
        </CharString>
        <CharString name="uni066E">
          9 callsubr
        </CharString>
        <CharString name="uni066F">
          128 callsubr
        </CharString>
        <CharString name="uni06A1">
          150 29 callsubr
          300 -100 rmoveto
          -74 callsubr
          250 -100 -38 callsubr
          0 vmoveto
          0 callsubr
          -380 -240 -104 callsubr
        </CharString>
        <CharString name="uni06BA">
          49 callsubr
        </CharString>
        <CharString name="uni06CC">
          -7 callsubr
        </CharString>
        <CharString name="uni06DD">
          300 hmoveto
          138 112 112 138 138 -112 112 -138 -138 -112 -112 -138 -138 112 -112 138 hvcurveto
          40 vmoveto
          -116 -94 94 116 116 94 94 116 116 94 -94 -116 -116 -94 -94 -116 hvcurveto
        </CharString>
</ttFont>
